<svg width="25" height="25" viewBox="0 0 25 25" fill="none" xmlns="http://www.w3.org/2000/svg">
    <g clip-path="url(#clip0_1128_385)">
        <path d="M9.89583 8.33333H1.5625C0.701042 8.33333 0 7.63229 0 6.77083V1.5625C0 0.701042 0.701042 0 1.5625 0H9.89583C10.7573 0 11.4583 0.701042 11.4583 1.5625V6.77083C11.4583 7.63229 10.7573 8.33333 9.89583 8.33333ZM1.5625 1.04167C1.27604 1.04167 1.04167 1.275 1.04167 1.5625V6.77083C1.04167 7.05833 1.27604 7.29167 1.5625 7.29167H9.89583C10.1823 7.29167 10.4167 7.05833 10.4167 6.77083V1.5625C10.4167 1.275 10.1823 1.04167 9.89583 1.04167H1.5625Z" fill="black"/>
        <path d="M9.89583 24.9998H1.5625C0.701042 24.9998 0 24.2988 0 23.4373V11.979C0 11.1175 0.701042 10.4165 1.5625 10.4165H9.89583C10.7573 10.4165 11.4583 11.1175 11.4583 11.979V23.4373C11.4583 24.2988 10.7573 24.9998 9.89583 24.9998ZM1.5625 11.4582C1.27604 11.4582 1.04167 11.6915 1.04167 11.979V23.4373C1.04167 23.7248 1.27604 23.9582 1.5625 23.9582H9.89583C10.1823 23.9582 10.4167 23.7248 10.4167 23.4373V11.979C10.4167 11.6915 10.1823 11.4582 9.89583 11.4582H1.5625Z" fill="black"/>
        <path d="M23.4375 24.9998H15.1042C14.2427 24.9998 13.5417 24.2988 13.5417 23.4373V18.229C13.5417 17.3675 14.2427 16.6665 15.1042 16.6665H23.4375C24.299 16.6665 25 17.3675 25 18.229V23.4373C25 24.2988 24.299 24.9998 23.4375 24.9998ZM15.1042 17.7082C14.8177 17.7082 14.5833 17.9415 14.5833 18.229V23.4373C14.5833 23.7248 14.8177 23.9582 15.1042 23.9582H23.4375C23.724 23.9582 23.9583 23.7248 23.9583 23.4373V18.229C23.9583 17.9415 23.724 17.7082 23.4375 17.7082H15.1042Z" fill="black"/>
        <path d="M23.4375 14.5833H15.1042C14.2427 14.5833 13.5417 13.8823 13.5417 13.0208V1.5625C13.5417 0.701042 14.2427 0 15.1042 0H23.4375C24.299 0 25 0.701042 25 1.5625V13.0208C25 13.8823 24.299 14.5833 23.4375 14.5833ZM15.1042 1.04167C14.8177 1.04167 14.5833 1.275 14.5833 1.5625V13.0208C14.5833 13.3083 14.8177 13.5417 15.1042 13.5417H23.4375C23.724 13.5417 23.9583 13.3083 23.9583 13.0208V1.5625C23.9583 1.275 23.724 1.04167 23.4375 1.04167H15.1042Z" fill="black"/>
    </g>
    <defs>
        <clipPath id="clip0_1128_385">
            <rect width="25" height="25" fill="white"/>
        </clipPath>
    </defs>
</svg>
