<svg width="22" height="26" viewBox="0 0 22 26" fill="none" xmlns="http://www.w3.org/2000/svg">
    <path d="M19.4795 6.20195H2.24046C2.1431 6.20195 2.05028 6.24204 1.98331 6.31252C1.91588 6.38354 1.88088 6.4784 1.88596 6.57576L2.7918 24.0542C2.83188 24.8317 3.47299 25.4409 4.25202 25.4409H17.4678C18.2469 25.4409 18.8881 24.8317 18.9281 24.0542L19.8339 6.57576C19.839 6.4784 19.804 6.38354 19.7365 6.31252C19.6697 6.24204 19.5768 6.20195 19.4795 6.20195ZM5.23248 9.72553C5.22591 9.48768 5.31265 9.26093 5.47697 9.08747C5.64129 8.914 5.86296 8.81461 6.10081 8.8075C6.59581 8.79735 7.00665 9.18584 7.02087 9.67685L7.35006 21.9462C7.35717 22.1836 7.27044 22.4108 7.10557 22.5848C6.94125 22.7578 6.71911 22.8572 6.48071 22.8643H6.45438C6.2256 22.8643 6.009 22.7776 5.84116 22.6183C5.66825 22.454 5.56878 22.2323 5.56222 21.995L5.23248 9.72553ZM9.96577 21.9568V9.68592C9.96577 9.1924 10.367 8.79117 10.86 8.79117C11.3529 8.79117 11.7542 9.1924 11.7542 9.68592V21.9568C11.7542 22.4508 11.3529 22.8526 10.86 22.8526C10.367 22.8526 9.96577 22.4509 9.96577 21.9568ZM16.1577 21.9939C16.1512 22.2323 16.0517 22.4539 15.8788 22.6183C15.7109 22.7775 15.4943 22.8642 15.2656 22.8642H15.2377C14.9998 22.8571 14.7781 22.7577 14.6143 22.5843C14.4494 22.4103 14.3627 22.1836 14.3698 21.9452L14.699 9.67787C14.7132 9.18639 15.121 8.79531 15.613 8.8075H15.619C15.8569 8.81461 16.0786 8.914 16.2429 9.08747C16.4072 9.26093 16.4939 9.48768 16.4874 9.72553L16.1577 21.9939ZM21.2522 3.46756V4.40895H0.467773V3.46756C0.467773 2.94818 0.890259 2.5257 1.40963 2.5257H8.24629C8.42734 2.5257 8.57955 2.38927 8.59931 2.20916C8.72566 1.05375 9.69745 0.182373 10.86 0.182373C12.0225 0.182373 12.9943 1.05375 13.1206 2.20916C13.1404 2.38919 13.2925 2.5257 13.4736 2.5257H20.3103C20.8297 2.5257 21.2522 2.94818 21.2522 3.46756Z"
          fill="white"/>
</svg>
