<svg width="24" height="29" viewBox="0 0 24 29" fill="none" xmlns="http://www.w3.org/2000/svg">
<path d="M21.8278 6.91123H2.03527C1.92349 6.91123 1.81691 6.95725 1.74003 7.03817C1.66261 7.11972 1.62242 7.22862 1.62825 7.3404L2.66827 27.4078C2.71429 28.3005 3.45037 28.9999 4.34478 28.9999H19.5182C20.4127 28.9999 21.1488 28.3005 21.1947 27.4078L22.2347 7.3404C22.2406 7.22862 22.2004 7.11972 22.1229 7.03817C22.0462 6.95725 21.9396 6.91123 21.8278 6.91123ZM5.47047 10.9567C5.46294 10.6837 5.56252 10.4233 5.75118 10.2242C5.93984 10.025 6.19435 9.91089 6.46743 9.90272C7.03575 9.89106 7.50745 10.3371 7.52377 10.9008L7.90172 24.9876C7.90989 25.2601 7.81031 25.521 7.62102 25.7208C7.43236 25.9194 7.17731 26.0335 6.9036 26.0417H6.87337C6.6107 26.0417 6.36202 25.9421 6.16932 25.7593C5.97079 25.5706 5.85659 25.3161 5.84905 25.0436L5.47047 10.9567ZM10.9049 24.9998V10.9113C10.9049 10.3446 11.3655 9.88397 11.9315 9.88397C12.4975 9.88397 12.9582 10.3446 12.9582 10.9113V24.9998C12.9582 25.5669 12.4975 26.0282 11.9315 26.0282C11.3655 26.0282 10.9049 25.567 10.9049 24.9998ZM18.014 25.0423C18.0065 25.316 17.8923 25.5705 17.6937 25.7592C17.501 25.942 17.2524 26.0416 16.9897 26.0416H16.9577C16.6846 26.0334 16.4301 25.9193 16.242 25.7202C16.0527 25.5205 15.9531 25.2601 15.9612 24.9864L16.3392 10.902C16.3555 10.3377 16.8237 9.88873 17.3885 9.90272H17.3955C17.6686 9.91089 17.9231 10.025 18.1118 10.2242C18.3005 10.4233 18.4 10.6837 18.3925 10.9567L18.014 25.0423ZM23.8631 3.7718V4.85263H0V3.7718C0 3.17549 0.485066 2.69043 1.08137 2.69043H8.93071C9.13857 2.69043 9.31332 2.53379 9.33602 2.32701C9.48108 1.00045 10.5968 0 11.9315 0C13.2662 0 14.382 1.00045 14.527 2.32701C14.5497 2.5337 14.7244 2.69043 14.9324 2.69043H22.7817C23.378 2.69043 23.8631 3.17549 23.8631 3.7718Z" fill="white"/>
</svg>
