<svg width="25" height="25" viewBox="0 0 25 25" fill="none" xmlns="http://www.w3.org/2000/svg">
<path d="M19.9895 17.4062C20.5304 16.7606 20.8288 15.9464 20.8333 15.1041C20.8333 14.1372 20.4491 13.2099 19.7654 12.5261C19.0817 11.8424 18.1544 11.4583 17.1874 11.4583H16.8958C17.7548 10.4375 18.2269 9.14667 18.2291 7.81247C18.2315 6.85054 17.9917 5.90349 17.5318 5.05864C17.0718 4.21379 16.4066 3.49835 15.5973 2.9783C14.7881 2.45824 13.8609 2.15032 12.9014 2.08292C11.9418 2.01551 10.9807 2.19081 10.1067 2.59263C9.23274 2.99445 8.474 3.60986 7.90047 4.38212C7.32694 5.15437 6.95709 6.05861 6.82502 7.01143C6.69296 7.96425 6.80293 8.93499 7.1448 9.83413C7.48666 10.7333 8.04942 11.5318 8.78117 12.1562C6.8127 12.9085 5.11869 14.2402 3.92285 15.9754C2.72701 17.7106 2.08558 19.7676 2.08325 21.875C2.08325 22.1512 2.193 22.4162 2.38835 22.6115C2.5837 22.8069 2.84865 22.9166 3.12492 22.9166C3.40119 22.9166 3.66614 22.8069 3.86149 22.6115C4.05684 22.4162 4.16659 22.1512 4.16659 21.875C4.16659 19.6648 5.04456 17.5452 6.60736 15.9824C8.17017 14.4196 10.2898 13.5416 12.4999 13.5416H13.9062C13.601 14.1625 13.4838 14.8589 13.569 15.5454C13.6541 16.232 13.9378 16.8787 14.3853 17.4062C13.4979 17.9026 12.7589 18.6266 12.2444 19.5036C11.7299 20.3806 11.4585 21.379 11.4583 22.3958C11.4583 22.6721 11.568 22.937 11.7633 23.1324C11.9587 23.3277 12.2237 23.4375 12.4999 23.4375C12.7762 23.4375 13.0411 23.3277 13.2365 23.1324C13.4318 22.937 13.5416 22.6721 13.5416 22.3958C13.5416 21.4289 13.9257 20.5015 14.6094 19.8178C15.2932 19.1341 16.2205 18.75 17.1874 18.75C18.1544 18.75 19.0817 19.1341 19.7654 19.8178C20.4491 20.5015 20.8333 21.4289 20.8333 22.3958C20.8333 22.6721 20.943 22.937 21.1383 23.1324C21.3337 23.3277 21.5987 23.4375 21.8749 23.4375C22.1512 23.4375 22.4161 23.3277 22.6115 23.1324C22.8068 22.937 22.9166 22.6721 22.9166 22.3958C22.9163 21.379 22.645 20.3806 22.1305 19.5036C21.616 18.6266 20.8769 17.9026 19.9895 17.4062ZM12.4999 11.4583C11.7788 11.4583 11.074 11.2445 10.4744 10.8439C9.87485 10.4433 9.40755 9.87386 9.13161 9.20767C8.85566 8.54148 8.78346 7.80843 8.92414 7.10121C9.06481 6.39398 9.41205 5.74436 9.92193 5.23448C10.4318 4.7246 11.0814 4.37737 11.7887 4.23669C12.4959 4.09602 13.2289 4.16822 13.8951 4.44416C14.5613 4.72011 15.1307 5.1874 15.5313 5.78696C15.9319 6.38651 16.1458 7.0914 16.1458 7.81247C16.1458 8.77941 15.7616 9.70674 15.0779 10.3905C14.3942 11.0742 13.4669 11.4583 12.4999 11.4583ZM17.1874 16.6666C16.773 16.6666 16.3756 16.502 16.0826 16.209C15.7895 15.916 15.6249 15.5185 15.6249 15.1041C15.6276 14.6906 15.7931 14.2947 16.0856 14.0023C16.378 13.7099 16.7739 13.5444 17.1874 13.5416C17.6018 13.5416 17.9992 13.7063 18.2923 13.9993C18.5853 14.2923 18.7499 14.6897 18.7499 15.1041C18.7499 15.5185 18.5853 15.916 18.2923 16.209C17.9992 16.502 17.6018 16.6666 17.1874 16.6666Z" fill="#464255"/>
</svg>
