<svg width="29" height="28" viewBox="0 0 29 28" fill="none" xmlns="http://www.w3.org/2000/svg">
<path d="M14.2012 9.625C13.3234 9.625 12.4654 9.88159 11.7356 10.3623C11.0058 10.8431 10.437 11.5263 10.1011 12.3258C9.76523 13.1252 9.67734 14.0048 9.84858 14.8535C10.0198 15.7022 10.4425 16.4817 11.0631 17.0936C11.6838 17.7054 12.4745 18.1221 13.3354 18.2909C14.1962 18.4597 15.0885 18.3731 15.8995 18.042C16.7104 17.7108 17.4035 17.1501 17.8911 16.4306C18.3787 15.7111 18.639 14.8653 18.639 14C18.6376 12.8401 18.1696 11.7281 17.3377 10.9079C16.5057 10.0877 15.3777 9.62637 14.2012 9.625ZM14.2012 16.625C13.6745 16.625 13.1597 16.471 12.7218 16.1826C12.284 15.8942 11.9427 15.4842 11.7411 15.0045C11.5396 14.5249 11.4869 13.9971 11.5896 13.4879C11.6924 12.9787 11.946 12.511 12.3183 12.1438C12.6907 11.7767 13.1652 11.5267 13.6817 11.4254C14.1982 11.3241 14.7336 11.3761 15.2201 11.5748C15.7067 11.7735 16.1226 12.1099 16.4151 12.5416C16.7077 12.9733 16.8639 13.4808 16.8639 14C16.8631 14.696 16.5823 15.3632 16.0831 15.8553C15.5839 16.3474 14.9071 16.6242 14.2012 16.625Z" fill="#0BB5C9"/>
<path d="M5.56812 8.55995C5.13168 8.3983 4.64857 8.41036 4.22099 8.59358C3.79341 8.7768 3.4549 9.11681 3.27706 9.54168C3.09922 9.96654 3.096 10.443 3.26809 10.8701C3.44017 11.2973 3.77406 11.6417 4.19913 11.8305C4.63156 12.0108 5.00052 12.3128 5.25991 12.6986C5.51931 13.0844 5.65764 13.537 5.65764 13.9999C5.65764 14.4627 5.51931 14.9153 5.25991 15.3012C5.00052 15.687 4.63156 15.9889 4.19913 16.1692C3.77396 16.358 3.43999 16.7025 3.26788 17.1298C3.09577 17.557 3.09903 18.0335 3.27696 18.4585C3.4549 18.8834 3.79355 19.2234 4.22126 19.4065C4.64897 19.5897 5.13219 19.6016 5.56866 19.4398C6.0042 19.2649 6.4824 19.2206 6.94336 19.3125C7.40432 19.4043 7.82753 19.6283 8.15999 19.9562C8.49244 20.2841 8.71936 20.7014 8.81231 21.1559C8.90527 21.6103 8.86012 22.0817 8.68253 22.511C8.51325 22.9424 8.52375 23.4223 8.71176 23.8461C8.89977 24.2699 9.25005 24.6033 9.68629 24.7737C9.90475 24.8628 10.1389 24.9087 10.3753 24.9087C10.7207 24.9111 11.0592 24.8129 11.3482 24.6265C11.6372 24.44 11.864 24.1736 12.0001 23.8606C12.183 23.4343 12.4893 23.0706 12.8806 22.8149C13.272 22.5592 13.7311 22.4228 14.2006 22.4228C14.6701 22.4228 15.1293 22.5592 15.5206 22.8149C15.912 23.0706 16.2182 23.4343 16.4011 23.8606C16.5927 24.2798 16.9421 24.609 17.3755 24.7787C17.8089 24.9484 18.2922 24.9452 18.7233 24.7697C19.1543 24.5943 19.4992 24.2605 19.685 23.8388C19.8708 23.4172 19.8829 22.9408 19.7187 22.5105C19.5413 22.0811 19.4964 21.6097 19.5896 21.1553C19.6828 20.7008 19.9099 20.2836 20.2425 19.9559C20.5751 19.6281 20.9984 19.4044 21.4594 19.3128C21.9204 19.2212 22.3986 19.2657 22.8341 19.4407C23.269 19.6072 23.7528 19.5983 24.1811 19.4159C24.6093 19.2335 24.9476 18.8924 25.1228 18.4662L24.3089 18.1176L23.5012 17.8194C22.7426 17.5138 21.9093 17.4362 21.1061 17.5963C20.3029 17.7564 19.5657 18.1471 18.9871 18.7191C18.4089 19.2937 18.0117 20.0209 17.8433 20.813C17.6749 21.6051 17.7425 22.4283 18.0379 23.1834C17.7213 22.4382 17.188 21.802 16.5052 21.3552C15.8224 20.9083 15.0207 20.6707 14.2012 20.6724C13.3799 20.6749 12.5769 20.912 11.8894 21.3551C11.2019 21.7981 10.6594 22.4281 10.3276 23.1688C10.6373 22.4209 10.7159 21.5995 10.5535 20.8077C10.3911 20.0159 9.99496 19.2891 9.41487 18.7186C8.832 18.1487 8.09438 17.7572 7.29091 17.5911C6.48744 17.4251 5.65242 17.4917 4.88647 17.7829C5.64236 17.4707 6.28758 16.9448 6.74076 16.2716C7.19395 15.5984 7.43482 14.808 7.433 14.0001C7.43046 13.1904 7.18993 12.3988 6.74051 11.721C6.2911 11.0433 5.65207 10.5085 4.90076 10.1813C5.65934 10.4868 6.49262 10.5644 7.29581 10.4043C8.09901 10.2442 8.83626 9.8536 9.41487 9.28156C9.99303 8.70699 10.3903 7.97982 10.5587 7.18772C10.7271 6.39561 10.6595 5.5724 10.364 4.81731C10.6807 5.5625 11.2142 6.19857 11.897 6.64534C12.5799 7.0921 13.3816 7.32956 14.2012 7.32777C15.0225 7.32526 15.8255 7.08814 16.513 6.64509C17.2005 6.20204 17.743 5.57207 18.0748 4.8314C17.7651 5.57927 17.6865 6.40069 17.8489 7.19247C18.0113 7.98424 18.4074 8.71104 18.9875 9.28156C19.5705 9.85124 20.3081 10.2426 21.1116 10.4087C21.915 10.5747 22.7499 10.5082 23.5159 10.2173C22.7637 10.5288 22.1211 11.0518 21.6682 11.7209C21.2154 12.39 20.9724 13.1758 20.9694 13.9802C20.9665 14.7845 21.2037 15.572 21.6516 16.2443C22.0995 16.9167 22.7383 17.4442 23.4882 17.7611C23.4907 17.7683 23.4907 17.7761 23.4882 17.7833L24.3086 18.117L25.1242 18.4618L25.129 18.4507C25.3102 18.0269 25.3146 17.5499 25.1413 17.1229C24.968 16.696 24.631 16.3536 24.2033 16.1701C23.7708 15.9898 23.4019 15.6878 23.1425 15.302C22.8831 14.9162 22.7447 14.4636 22.7447 14.0007C22.7447 13.5379 22.8831 13.0853 23.1425 12.6994C23.4019 12.3136 23.7708 12.0117 24.2033 11.8314C24.6284 11.6426 24.9624 11.2981 25.1345 10.8708C25.3066 10.4436 25.3034 9.96708 25.1254 9.54215C24.9475 9.11722 24.6088 8.77721 24.1811 8.59406C23.7534 8.4109 23.2702 8.39899 22.8337 8.56082C22.3982 8.73569 21.92 8.77996 21.459 8.68811C20.9981 8.59625 20.5749 8.37235 20.2424 8.04444C19.9099 7.71654 19.683 7.29921 19.5901 6.84474C19.4971 6.39027 19.5423 5.91886 19.7199 5.48957C19.884 5.05931 19.8718 4.58298 19.686 4.16138C19.5002 3.73978 19.1553 3.40598 18.7243 3.2306C18.2933 3.05523 17.81 3.05204 17.3766 3.22171C16.9433 3.39138 16.5939 3.7206 16.4024 4.13971C16.2195 4.56601 15.9132 4.92974 15.5219 5.18546C15.1305 5.44118 14.6714 5.57756 14.2019 5.57756C13.7323 5.57756 13.2732 5.44118 12.8819 5.18546C12.4905 4.92974 12.1842 4.56601 12.0013 4.13971C11.8098 3.72056 11.4604 3.39132 11.027 3.22165C10.5936 3.05198 10.1102 3.05519 9.6792 3.2306C9.24817 3.40602 8.90327 3.73988 8.71748 4.16153C8.5317 4.58318 8.51961 5.05955 8.68377 5.48983C8.86115 5.91921 8.90606 6.39064 8.81289 6.84506C8.71971 7.29949 8.49259 7.71671 8.15997 8.04446C7.82736 8.3722 7.40403 8.59591 6.94303 8.68754C6.48203 8.77918 6.00385 8.73467 5.56839 8.5596L5.56812 8.55995Z" fill="#0BB5C9"/>
</svg>
