<svg width="77" height="91" viewBox="0 0 77 91" fill="none" xmlns="http://www.w3.org/2000/svg">
<path d="M44.1189 90.5195C41.9908 90.835 39.8131 90.9998 37.5973 90.9998C29.4919 90.9998 21.8983 88.8116 15.3711 84.9975C16.4027 81.169 18.3876 77.766 21.0334 75.0242C20.9209 75.1407 20.809 75.2577 20.699 75.3764H47.9558L44.1189 90.5195Z" fill="#E9E3D5"/>
<path d="M59.8236 84.9975C58.8674 81.4489 57.0855 78.33 54.8994 75.8229C53.4794 74.2324 52.0077 72.8853 50.1472 71.7015C50.0197 71.6089 49.3921 71.2286 49.1905 71.1107C39.7096 65.5512 27.9235 67.5693 20.6992 75.3765C26.9576 77.9414 33.7248 79.1127 40.5227 78.7992C40.7765 78.8645 41.0153 78.8933 41.2419 78.8933C42.8309 78.8933 44.1192 80.1816 44.1192 81.7706V90.5195C49.7749 89.6806 55.081 87.769 59.8236 84.9975Z" fill="#D3CDBF"/>
<path d="M54.5263 87.6317C53.0161 88.2602 51.4637 88.8072 49.8741 89.2673V78.8937C52.199 81.2454 53.8532 84.2615 54.5263 87.6317Z" fill="#A19B8D"/>
<path d="M25.3208 78.8937V89.2673C23.7312 88.8074 22.1788 88.2602 20.6686 87.6317C21.3417 84.2615 22.9957 81.2454 25.3208 78.8937Z" fill="#B6B0A2"/>
<path d="M38.3649 84.7451C39.1594 84.7451 39.8035 84.101 39.8035 83.3065C39.8035 82.512 39.1594 81.8679 38.3649 81.8679C37.5704 81.8679 36.9264 82.512 36.9264 83.3065C36.9264 84.101 37.5704 84.7451 38.3649 84.7451Z" fill="#3E4954"/>
<path d="M38.3649 90.4998C39.1594 90.4998 39.8035 89.8557 39.8035 89.0612C39.8035 88.2667 39.1594 87.6227 38.3649 87.6227C37.5704 87.6227 36.9263 88.2667 36.9263 89.0612C36.9263 89.8557 37.5704 90.4998 38.3649 90.4998Z" fill="#3E4954"/>
<path d="M65.2197 47.6785C65.2197 32.8075 53.1563 16.9869 38.3645 16.9869C26.0965 16.9869 15.7505 27.838 12.5401 39.9826C11.3665 39.3855 10.0392 39.0464 8.63204 39.0464C3.86475 39.0464 0 42.911 0 47.6785C0 52.446 3.86456 56.3105 8.63204 56.3105C8.87927 56.3105 9.12328 56.2977 9.36522 56.2773C9.60583 61.2194 12.2501 65.9235 16.8845 68.671C30.0708 76.4879 46.6583 76.4879 59.8446 68.671C67.2456 64.2837 69.5232 54.9835 65.2197 47.6785Z" fill="#FFB578"/>
<path d="M68.097 39.0465C66.6891 39.0465 65.3611 39.3858 64.1869 39.9838C62.06 31.9354 56.8027 24.4696 49.9408 20.3393C49.9408 20.3393 57.3448 29.074 57.3448 45.7614C57.3448 50.8634 54.614 55.7845 49.8074 58.6337C37.6988 65.8115 22.7229 66.3971 10.1456 60.3927C11.2725 63.7341 13.5673 66.7044 16.8847 68.6709C30.071 76.4877 46.6584 76.4877 59.8445 68.6709C64.5007 65.9107 67.1268 61.2062 67.3644 56.2773C67.6062 56.2977 67.85 56.3106 68.097 56.3106C72.8643 56.3106 76.7291 52.446 76.7291 47.6785C76.7291 42.911 72.8643 39.0465 68.097 39.0465Z" fill="#F7A16E"/>
<path d="M8.63241 50.5566C10.2215 50.5566 11.5098 49.2684 11.5098 47.6793C11.5098 46.0902 10.2215 44.8019 8.63241 44.8019C7.04329 44.8019 5.75506 46.0902 5.75506 47.6793C5.75506 49.2684 7.04329 50.5566 8.63241 50.5566Z" fill="#F7A16E"/>
<path d="M68.0972 50.5566C69.6863 50.5566 70.9746 49.2684 70.9746 47.6793C70.9746 46.0902 69.6863 44.8019 68.0972 44.8019C66.5081 44.8019 65.2199 46.0902 65.2199 47.6793C65.2199 49.2684 66.5081 50.5566 68.0972 50.5566Z" fill="#CE795F"/>
<path d="M12.5401 39.972C14.4773 40.9575 15.9924 42.652 16.7439 44.714C17.0881 45.6587 18.2736 45.9823 19.0304 45.3205C22.6498 42.1566 24.9371 37.5073 24.9371 32.3221C24.9371 29.0985 24.0525 26.082 22.5143 23.4999C22.5143 23.5001 10.8851 26.7131 12.5401 39.972Z" fill="#596775"/>
<path d="M54.2148 23.4999C52.6768 26.0818 51.792 29.0985 51.792 32.3221C51.792 37.5073 54.0791 42.1566 57.6987 45.3205C58.4559 45.9823 59.6412 45.6587 59.9852 44.714C60.7363 42.6519 62.2518 40.9575 64.189 39.972C65.8442 26.713 54.2148 23.4999 54.2148 23.4999Z" fill="#46525E"/>
<path d="M63.3016 11.2214H13.4279V31.7369H63.3016V11.2214Z" fill="#E9E3D5"/>
<path d="M62.2465 0C60.8552 0 15.2191 0 14.4827 0C9.66253 0 5.75488 3.90766 5.75488 8.72787C5.75488 13.5481 9.66253 17.4557 14.4827 17.4557C14.8526 17.4557 61.2939 17.4557 62.2465 17.4557C67.0667 17.4557 70.9744 13.5481 70.9744 8.72787C70.9744 3.90766 67.0667 0 62.2465 0Z" fill="#E9E3D5"/>
<path d="M70.9744 8.72787C70.9744 7.21217 70.5875 5.78701 69.9078 4.54501C68.04 5.01981 66.6583 6.71242 66.6583 8.72787C66.6583 11.1605 64.6791 13.1398 62.2463 13.1398H14.4827C12.4673 13.1398 10.7747 14.5215 10.2999 16.3893C11.5419 17.069 12.9671 17.4559 14.4827 17.4559H23.0188H38.3645C48.9466 17.4559 61.2724 17.4559 62.2463 17.4559C67.0667 17.4557 70.9744 13.5483 70.9744 8.72787Z" fill="#D3CDBF"/>
<path d="M15.7297 8.72791C15.7297 7.9333 15.0855 7.28933 14.2911 7.28933C13.4965 7.28933 12.8525 7.93349 12.8525 8.72791C12.8525 11.1197 13.6847 13.3198 15.0725 15.058H19.412C17.2146 13.801 15.7297 11.4355 15.7297 8.72791Z" fill="#D3CDBF"/>
<path d="M63.877 8.72791C63.877 7.9333 63.2328 7.28933 62.4384 7.28933C61.644 7.28933 60.9998 7.93349 60.9998 8.72791C60.9998 11.4355 59.5149 13.801 57.3178 15.058H61.6574C63.0447 13.3198 63.877 11.1199 63.877 8.72791Z" fill="#D3CDBF"/>
<path d="M53.7103 7.28933C52.9157 7.28933 52.2717 7.93349 52.2717 8.72791C52.2717 11.4355 50.7869 13.801 48.5898 15.058H52.9293C54.3169 13.3196 55.1493 11.1197 55.1493 8.72791C55.1491 7.93349 54.5049 7.28933 53.7103 7.28933Z" fill="#D3CDBF"/>
<path d="M27.2389 8.72791C27.2389 7.9333 26.5947 7.28933 25.8003 7.28933C25.0059 7.28933 24.3617 7.93349 24.3617 8.72791C24.3617 11.1197 25.1939 13.3198 26.5817 15.058H30.9212C28.7239 13.801 27.2389 11.4355 27.2389 8.72791Z" fill="#D3CDBF"/>
</svg>
