<svg width="25" height="25" viewBox="0 0 25 25" fill="none" xmlns="http://www.w3.org/2000/svg">
<path d="M21.8753 5.20833H3.12528C2.53501 5.20833 2.08362 4.75694 2.08362 4.16667C2.08362 3.57639 2.53501 3.125 3.12528 3.125H21.8753C22.4656 3.125 22.917 3.57639 22.917 4.16667C22.917 4.75694 22.4656 5.20833 21.8753 5.20833Z" fill="#0BB5C9"/>
<path d="M15.6253 10.7639H3.12528C2.53501 10.7639 2.08362 10.3125 2.08362 9.72221C2.08362 9.13193 2.53501 8.68054 3.12528 8.68054H15.6253C16.2156 8.68054 16.6669 9.13193 16.6669 9.72221C16.6669 10.3125 16.2156 10.7639 15.6253 10.7639Z" fill="#0BB5C9"/>
<path d="M21.8753 16.3194H3.12528C2.53501 16.3194 2.08362 15.868 2.08362 15.2778C2.08362 14.6875 2.53501 14.2361 3.12528 14.2361H21.8753C22.4656 14.2361 22.917 14.6875 22.917 15.2778C22.917 15.868 22.4656 16.3194 21.8753 16.3194Z" fill="#0BB5C9"/>
<path d="M15.6253 21.875H3.12528C2.53501 21.875 2.08362 21.4236 2.08362 20.8333C2.08362 20.243 2.53501 19.7916 3.12528 19.7916H15.6253C16.2156 19.7916 16.6669 20.243 16.6669 20.8333C16.6669 21.4236 16.2156 21.875 15.6253 21.875Z" fill="#0BB5C9"/>
</svg>
