<svg width="310" height="310" viewBox="0 0 310 310" fill="none" xmlns="http://www.w3.org/2000/svg">
<path d="M217.969 9.6875H92.0312C89.462 9.6875 86.9979 10.7081 85.1812 12.5249C83.3644 14.3417 82.3438 16.8057 82.3438 19.375V280.938H227.656V19.375C227.656 16.8057 226.636 14.3417 224.819 12.5249C223.002 10.7081 220.538 9.6875 217.969 9.6875Z" fill="#283238"/>
<path d="M217.969 9.6875H101.719C99.1495 9.6875 96.6854 10.7081 94.8687 12.5249C93.0519 14.3417 92.0312 16.8057 92.0312 19.375V280.938H227.656V19.375C227.656 16.8057 226.636 14.3417 224.819 12.5249C223.002 10.7081 220.538 9.6875 217.969 9.6875Z" fill="#3A474E"/>
<path d="M101.719 29.0625H208.281V145.312H101.719V29.0625Z" fill="#E3E8F6"/>
<path d="M111.406 29.0625H208.281V145.312H111.406V29.0625Z" fill="#F8F7FE"/>
<path d="M101.719 164.688H140.469V213.125H101.719V164.688Z" fill="#E78438"/>
<path d="M111.406 164.688H140.469V213.125H111.406V164.688Z" fill="#EEAB46"/>
<path d="M111.406 232.5H130.781V251.875H111.406V232.5Z" fill="#E78438"/>
<path d="M121.094 232.5H130.781V251.875H121.094V232.5Z" fill="#EEAB46"/>
<path d="M164.688 164.688V203.438L174.375 193.75L184.062 203.438L193.75 193.75L203.438 203.438V164.688H164.688Z" fill="#E3E8F6"/>
<path d="M184.062 203.438L193.75 193.75L203.438 203.438V164.688H174.375V193.75L184.062 203.438Z" fill="#F8F7FE"/>
<path d="M67.8125 300.312V295.469C67.8125 291.615 69.3435 287.919 72.0686 285.194C74.7937 282.468 78.4898 280.938 82.3438 280.938H227.656C231.51 280.938 235.206 282.468 237.931 285.194C240.657 287.919 242.188 291.615 242.188 295.469V300.312H67.8125Z" fill="#E78438"/>
<path d="M227.656 280.938H92.0312C88.1773 280.938 84.4812 282.468 81.7561 285.194C79.031 287.919 77.5 291.615 77.5 295.469V300.312H242.188V295.469C242.188 291.615 240.657 287.919 237.931 285.194C235.206 282.468 231.51 280.938 227.656 280.938Z" fill="#EEAB46"/>
<path d="M169.531 29.0625L101.719 96.875V135.625L208.281 29.0625H169.531Z" fill="white"/>
<path d="M213.125 169.531H155C153.715 169.531 152.483 169.021 151.575 168.113C150.667 167.204 150.156 165.972 150.156 164.688C150.156 163.403 150.667 162.171 151.575 161.262C152.483 160.354 153.715 159.844 155 159.844H213.125C214.41 159.844 215.642 160.354 216.55 161.262C217.458 162.171 217.969 163.403 217.969 164.688C217.969 165.972 217.458 167.204 216.55 168.113C215.642 169.021 214.41 169.531 213.125 169.531Z" fill="#E78438"/>
</svg>
