<svg width="25" height="25" viewBox="0 0 25 25" fill="none" xmlns="http://www.w3.org/2000/svg">
<path d="M13.1771 2.33325C12.9884 2.17189 12.7483 2.08323 12.5001 2.08325H5.20838C4.93212 2.08325 4.66717 2.193 4.47181 2.38835C4.27646 2.5837 4.16672 2.84865 4.16672 3.12492V21.8749C4.16672 22.1512 4.27646 22.4161 4.47181 22.6115C4.66717 22.8068 4.93212 22.9166 5.20838 22.9166H19.7917C20.068 22.9166 20.3329 22.8068 20.5283 22.6115C20.7236 22.4161 20.8334 22.1512 20.8334 21.8749V9.37492C20.8334 9.22446 20.8008 9.07579 20.7379 8.93912C20.6749 8.80246 20.5831 8.68105 20.4688 8.58325L13.1771 2.33325ZM13.5417 5.38534L16.9792 8.33325H13.5417V5.38534ZM18.7501 20.8333H6.25005V4.16659H11.4584V9.37492C11.4584 9.65119 11.5681 9.91614 11.7635 10.1115C11.9588 10.3068 12.2238 10.4166 12.5001 10.4166H18.7501V20.8333Z" fill="#0BB5C9"/>
</svg>
