<svg width="226" height="226" viewBox="0 0 226 226" fill="none" xmlns="http://www.w3.org/2000/svg">
<path d="M79.4429 130.175H146.046V162.762H79.4429V130.175Z" fill="#5D656E"/>
<path d="M132.404 130.175H146.046V162.762H132.404V130.175Z" fill="#474D54"/>
<path d="M220.812 224.124H5.188C2.32275 224.124 0 221.801 0 218.936V163.529C0 160.664 2.32275 158.341 5.188 158.341H220.812C223.677 158.341 226 160.664 226 163.529V218.936C226 221.801 223.677 224.124 220.812 224.124Z" fill="#7F8A96"/>
<path d="M198.566 134.595H26.9227C24.6345 134.595 22.7801 132.741 22.7801 130.453V6.01831C22.7801 3.73057 24.6349 1.87573 26.9227 1.87573H198.566C200.854 1.87573 202.709 3.73057 202.709 6.01831V130.453C202.708 132.741 200.854 134.595 198.566 134.595Z" fill="#7F8A96"/>
<path d="M38.4182 114.117V22.3535C38.4182 19.6806 40.585 17.5139 43.2579 17.5139H182.231C184.904 17.5139 187.07 19.6806 187.07 22.3535V114.117C187.07 116.79 184.904 118.957 182.231 118.957H43.2579C40.585 118.957 38.4182 116.79 38.4182 114.117Z" fill="#F2F5FB"/>
<path d="M182.231 17.5139H168.589C171.262 17.5139 173.428 19.6806 173.428 22.3535V114.117C173.428 116.79 171.262 118.957 168.589 118.957H182.231C184.903 118.957 187.07 116.79 187.07 114.117V22.3535C187.07 19.6806 184.903 17.5139 182.231 17.5139Z" fill="#E6E8F0"/>
<path d="M220.556 158.341H207.17C210.035 158.341 212.358 160.664 212.358 163.529V218.936C212.358 221.801 210.035 224.124 207.17 224.124H220.556C223.421 224.124 225.744 221.801 225.744 218.936V163.529C225.744 160.664 223.421 158.341 220.556 158.341Z" fill="#747E8A"/>
<path d="M198.566 1.87573H184.924C187.212 1.87573 189.067 3.73057 189.067 6.01831V130.453C189.067 132.741 187.212 134.595 184.924 134.595H198.566C200.854 134.595 202.708 132.741 202.708 130.453V6.01831C202.708 3.73057 200.854 1.87573 198.566 1.87573Z" fill="#747E8A"/>
<path d="M193.925 201.191C199.425 201.191 203.884 196.733 203.884 191.233C203.884 185.733 199.425 181.274 193.925 181.274C188.425 181.274 183.967 185.733 183.967 191.233C183.967 196.733 188.425 201.191 193.925 201.191Z" fill="#E7E7E7"/>
<path d="M166.426 102.657H141.083C139.079 102.657 137.454 101.032 137.454 99.0284V84.4912C137.454 82.4872 139.079 80.8625 141.083 80.8625H166.426C168.431 80.8625 170.055 82.4872 170.055 84.4912V99.0284C170.056 101.032 168.431 102.657 166.426 102.657Z" fill="#FFA05B"/>
<path d="M119.172 103.112H58.1125C55.6451 103.112 53.6448 101.112 53.6448 98.6442V37.5846C53.6448 35.1173 55.6451 33.1169 58.1125 33.1169H119.172C121.639 33.1169 123.64 35.1173 123.64 37.5846V98.6442C123.64 101.112 121.64 103.112 119.172 103.112Z" fill="#90D7A7"/>
<path d="M159.325 194.643H36.662C34.7786 194.643 33.2516 193.116 33.2516 191.233C33.2516 189.349 34.7786 187.822 36.662 187.822H159.325C161.208 187.822 162.735 189.349 162.735 191.233C162.735 193.116 161.209 194.643 159.325 194.643Z" fill="#5D656E"/>
<path d="M164.003 66.8796H143.157C141.273 66.8796 139.746 65.3526 139.746 63.4691C139.746 61.5856 141.273 60.0587 143.157 60.0587H164.003C165.886 60.0587 167.413 61.5856 167.413 63.4691C167.413 65.3526 165.886 66.8796 164.003 66.8796Z" fill="#C9C9C9"/>
<path d="M164.003 52.3337H143.157C141.273 52.3337 139.746 50.8068 139.746 48.9233C139.746 47.0398 141.273 45.5128 143.157 45.5128H164.003C165.886 45.5128 167.413 47.0398 167.413 48.9233C167.413 50.8068 165.886 52.3337 164.003 52.3337Z" fill="#C9C9C9"/>
<path d="M123.64 82.3004H103.996V71.5247H123.64V64.7037H103.996V53.928H123.64V47.1071H103.996V33.1169H97.1754V47.1071H80.1099V33.1169H73.289V47.1071H53.6452V53.928H73.289V64.7037H53.6452V71.5247H73.289V82.3004H53.6452V89.1213H73.289V103.112H80.1099V89.1213H97.1754V103.112H103.996V89.1213H123.64V82.3004ZM97.1754 82.3004H80.1099V71.5247H97.1754V82.3004ZM97.1754 64.7037H80.1099V53.928H97.1754V64.7037Z" fill="#72C888"/>
</svg>
