<svg width="25" height="25" viewBox="0 0 25 25" fill="none" xmlns="http://www.w3.org/2000/svg">
<path d="M13.1771 2.33332C12.9884 2.17196 12.7483 2.0833 12.5001 2.08332H5.20838C4.93212 2.08332 4.66717 2.19307 4.47181 2.38842C4.27646 2.58377 4.16672 2.84872 4.16672 3.12499V21.875C4.16672 22.1513 4.27646 22.4162 4.47181 22.6116C4.66717 22.8069 4.93212 22.9167 5.20838 22.9167H19.7917C20.068 22.9167 20.3329 22.8069 20.5283 22.6116C20.7236 22.4162 20.8334 22.1513 20.8334 21.875V9.37499C20.8334 9.22453 20.8008 9.07585 20.7379 8.93919C20.6749 8.80253 20.5831 8.68112 20.4688 8.58332L13.1771 2.33332ZM13.5417 5.3854L16.9792 8.33332H13.5417V5.3854ZM18.7501 20.8333H6.25005V4.16665H11.4584V9.37499C11.4584 9.65126 11.5681 9.91621 11.7635 10.1116C11.9588 10.3069 12.2238 10.4167 12.5001 10.4167H18.7501V20.8333Z" fill="#464255"/>
</svg>
