<svg width="19" height="21" viewBox="0 0 19 21" fill="none" xmlns="http://www.w3.org/2000/svg">
<path d="M0 7.34994V19.9498C0 20.2283 0.110624 20.4954 0.307535 20.6923C0.504447 20.8892 0.771517 20.9998 1.04999 20.9998H6.29995C6.57843 20.9998 6.8455 20.8892 7.04241 20.6923C7.23932 20.4954 7.34994 20.2283 7.34994 19.9498V12.5999H11.5499V19.9498C11.5499 20.2283 11.6605 20.4954 11.8574 20.6923C12.0544 20.8892 12.3214 20.9998 12.5999 20.9998H17.8499C18.1283 20.9998 18.3954 20.8892 18.5923 20.6923C18.7892 20.4954 18.8999 20.2283 18.8999 19.9498V7.34994C18.8999 7.18694 18.8619 7.02617 18.789 6.88037C18.7161 6.73458 18.6103 6.60775 18.4799 6.50995L10.0799 0.209998C9.89817 0.0736862 9.67711 0 9.44993 0C9.22274 0 9.00168 0.0736862 8.81993 0.209998L0.419997 6.50995C0.289592 6.60775 0.183749 6.73458 0.11085 6.88037C0.0379519 7.02617 0 7.18694 0 7.34994ZM2.09998 7.87494L9.44993 2.36248L16.7999 7.87494V18.8999H13.6499V11.5499C13.6499 11.2714 13.5393 11.0044 13.3424 10.8075C13.1454 10.6105 12.8784 10.4999 12.5999 10.4999H6.29995C6.02148 10.4999 5.75441 10.6105 5.55749 10.8075C5.36058 11.0044 5.24996 11.2714 5.24996 11.5499V18.8999H2.09998V7.87494Z" fill="#464255"/>
</svg>
