<svg width="25" height="25" viewBox="0 0 25 25" fill="none" xmlns="http://www.w3.org/2000/svg">
<path d="M21.875 19.7916H5.20833V3.12498C5.20833 2.84871 5.09859 2.58376 4.90324 2.38841C4.70789 2.19306 4.44293 2.08331 4.16667 2.08331C3.8904 2.08331 3.62545 2.19306 3.4301 2.38841C3.23475 2.58376 3.125 2.84871 3.125 3.12498V20.8333C3.125 21.1096 3.23475 21.3745 3.4301 21.5699C3.62545 21.7652 3.8904 21.875 4.16667 21.875H21.875C22.1513 21.875 22.4162 21.7652 22.6116 21.5699C22.8069 21.3745 22.9167 21.1096 22.9167 20.8333C22.9167 20.557 22.8069 20.2921 22.6116 20.0967C22.4162 19.9014 22.1513 19.7916 21.875 19.7916Z" fill="#464255"/>
<path d="M7.29169 11.4584V16.6667C7.29169 16.943 7.40143 17.2079 7.59678 17.4033C7.79213 17.5986 8.05709 17.7083 8.33335 17.7083C8.60962 17.7083 8.87457 17.5986 9.06992 17.4033C9.26527 17.2079 9.37502 16.943 9.37502 16.6667V11.4584C9.37502 11.1821 9.26527 10.9171 9.06992 10.7218C8.87457 10.5264 8.60962 10.4167 8.33335 10.4167C8.05709 10.4167 7.79213 10.5264 7.59678 10.7218C7.40143 10.9171 7.29169 11.1821 7.29169 11.4584Z" fill="#464255"/>
<path d="M11.4583 6.24999V16.6667C11.4583 16.9429 11.5681 17.2079 11.7634 17.4032C11.9588 17.5986 12.2237 17.7083 12.5 17.7083C12.7762 17.7083 13.0412 17.5986 13.2366 17.4032C13.4319 17.2079 13.5416 16.9429 13.5416 16.6667V6.24999C13.5416 5.97373 13.4319 5.70878 13.2366 5.51343C13.0412 5.31808 12.7762 5.20833 12.5 5.20833C12.2237 5.20833 11.9588 5.31808 11.7634 5.51343C11.5681 5.70878 11.4583 5.97373 11.4583 6.24999Z" fill="#464255"/>
<path d="M15.625 8.33334V16.6667C15.625 16.9429 15.7347 17.2079 15.9301 17.4032C16.1254 17.5986 16.3904 17.7083 16.6667 17.7083C16.9429 17.7083 17.2079 17.5986 17.4032 17.4032C17.5986 17.2079 17.7083 16.9429 17.7083 16.6667V8.33334C17.7083 8.05707 17.5986 7.79212 17.4032 7.59677C17.2079 7.40142 16.9429 7.29167 16.6667 7.29167C16.3904 7.29167 16.1254 7.40142 15.9301 7.59677C15.7347 7.79212 15.625 8.05707 15.625 8.33334Z" fill="#464255"/>
<path d="M19.7917 3.12498V16.6666C19.7917 16.9429 19.9014 17.2079 20.0968 17.4032C20.2921 17.5986 20.5571 17.7083 20.8334 17.7083C21.1096 17.7083 21.3746 17.5986 21.5699 17.4032C21.7653 17.2079 21.875 16.9429 21.875 16.6666V3.12498C21.875 2.84871 21.7653 2.58376 21.5699 2.38841C21.3746 2.19306 21.1096 2.08331 20.8334 2.08331C20.5571 2.08331 20.2921 2.19306 20.0968 2.38841C19.9014 2.58376 19.7917 2.84871 19.7917 3.12498Z" fill="#464255"/>
</svg>
