<svg width="28" height="29" viewBox="0 0 28 29" fill="none" xmlns="http://www.w3.org/2000/svg">
<path d="M25.0564 17.4906C24.8252 17.4906 24.6034 17.5861 24.4398 17.756C24.2763 17.926 24.1844 18.1565 24.1844 18.3969V21.4917C24.1844 22.2212 23.9056 22.9208 23.4093 23.4366C22.913 23.9524 22.2399 24.2422 21.538 24.2422H6.36552C5.66363 24.2422 4.9905 23.9524 4.49419 23.4366C3.99788 22.9208 3.71906 22.2212 3.71906 21.4917V18.3969C3.71906 18.1565 3.62719 17.926 3.46366 17.756C3.30013 17.5861 3.07834 17.4906 2.84708 17.4906C2.61581 17.4906 2.39402 17.5861 2.23049 17.756C2.06697 17.926 1.9751 18.1565 1.9751 18.3969V21.4917C1.97625 22.7015 2.43918 23.8614 3.2623 24.7169C4.08541 25.5723 5.20146 26.0535 6.36552 26.0547H21.538C22.702 26.0535 23.8181 25.5723 24.6412 24.7169C25.4643 23.8614 25.9272 22.7015 25.9284 21.4917V18.3969C25.9284 18.1565 25.8365 17.926 25.673 17.756C25.5095 17.5861 25.2877 17.4906 25.0564 17.4906Z" fill="white"/>
<path d="M9.59181 9.65155L13.0797 6.02655V19.4844C13.0797 19.7247 13.1716 19.9552 13.3351 20.1252C13.4987 20.2951 13.7204 20.3906 13.9517 20.3906C14.183 20.3906 14.4048 20.2951 14.5683 20.1252C14.7318 19.9552 14.8237 19.7247 14.8237 19.4844V6.04014L18.3116 9.66514C18.3926 9.74934 18.4888 9.81613 18.5947 9.8617C18.7005 9.90727 18.814 9.93072 18.9285 9.93072C19.0431 9.93072 19.1566 9.90727 19.2624 9.8617C19.3683 9.81613 19.4644 9.74934 19.5455 9.66514C19.6265 9.58094 19.6907 9.48098 19.7346 9.37097C19.7784 9.26096 19.801 9.14305 19.801 9.02397C19.801 8.90489 19.7784 8.78698 19.7346 8.67697C19.6907 8.56696 19.6265 8.467 19.5455 8.3828L14.5708 3.21264C14.4496 3.09045 14.299 3.00437 14.1348 2.96342C13.9937 2.93642 13.8484 2.94496 13.7111 2.98832C13.5738 3.03168 13.4485 3.1086 13.3457 3.21264L8.37104 8.3692C8.2326 8.54233 8.16111 8.7628 8.1705 8.9877C8.17988 9.21259 8.26946 9.42581 8.4218 9.58583C8.57414 9.74585 8.77832 9.84121 8.9946 9.85336C9.21088 9.86551 9.42376 9.79357 9.59181 9.65155Z" fill="white"/>
</svg>
