<svg width="25" height="25" viewBox="0 0 25 25" fill="none" xmlns="http://www.w3.org/2000/svg">
<path d="M21.0937 8.59375H20.004L20.1368 7.26398C20.1693 6.93819 20.1332 6.60921 20.0308 6.29822C19.9284 5.98724 19.762 5.70116 19.5423 5.45842C19.3225 5.21569 19.0544 5.02168 18.7551 4.88889C18.4559 4.75611 18.1321 4.68751 17.8047 4.6875H5.63281C5.30533 4.68753 4.9815 4.75616 4.68217 4.88899C4.38284 5.02182 4.11467 5.2159 3.89493 5.4587C3.67519 5.70151 3.50876 5.98766 3.40637 6.29872C3.30399 6.60978 3.26791 6.93883 3.30046 7.26469L4.37038 19.2148C4.39137 19.4022 4.35023 19.0134 4.49991 19.7633H2.16319C1.95599 19.7633 1.75728 19.8457 1.61076 19.9922C1.46425 20.1387 1.38194 20.3374 1.38194 20.5446C1.38194 20.7518 1.46425 20.9505 1.61076 21.097C1.75728 21.2435 1.95599 21.3258 2.16319 21.3258L21.25 21.5625C21.4572 21.5625 21.6559 21.4802 21.8024 21.3337C21.9489 21.1872 22.0312 20.9885 22.0312 20.7812C22.0312 20.574 21.9489 20.3753 21.8024 20.2288C21.6559 20.0823 21.4572 20 21.25 20H18.9134C18.9784 19.8232 19.0218 19.6393 19.0428 19.4522L19.3006 15.625H21.0937C21.7151 15.6243 22.3109 15.3772 22.7503 14.9378C23.1897 14.4984 23.4368 13.9026 23.4375 13.2812V10.9375C23.4368 10.3161 23.1897 9.72036 22.7503 9.28097C22.3109 8.84158 21.7151 8.59443 21.0937 8.59375ZM7.0766 19.7633C6.88281 19.764 6.69575 19.6922 6.55208 19.5622C6.40841 19.4321 6.31847 19.2531 6.29988 19.0602L5.1723 7.29978C5.16142 7.19111 5.17342 7.08137 5.20753 6.97763C5.24165 6.87388 5.29711 6.77844 5.37036 6.69743C5.44361 6.61643 5.53301 6.55167 5.63281 6.50732C5.7326 6.46297 5.84059 6.44001 5.94979 6.43993L17.5255 6.50732C17.6347 6.50739 17.7426 6.53032 17.8424 6.57464C17.9422 6.61896 18.0315 6.68368 18.1048 6.76463C18.178 6.84559 18.2335 6.94098 18.2676 7.04467C18.3018 7.14837 18.3138 7.25806 18.303 7.36669L17.5255 19.061C17.5068 19.2538 17.4167 19.4327 17.273 19.5626C17.1292 19.6925 16.9422 19.7641 16.7485 19.7633H7.0766ZM21.875 13.2812C21.8749 13.4884 21.7925 13.6871 21.646 13.8335C21.4995 13.98 21.3009 14.0624 21.0937 14.0625H19.4569L19.8476 10.1562H21.0937C21.3009 10.1564 21.4995 10.2387 21.646 10.3852C21.7925 10.5317 21.8749 10.7303 21.875 10.9375V13.2812Z" fill="#464255"/>
</svg>
