<svg width="25" height="25" viewBox="0 0 25 25" fill="none" xmlns="http://www.w3.org/2000/svg">
<path d="M3.12495 22.9167H7.29162C7.42871 22.9175 7.56461 22.8912 7.69152 22.8394C7.81843 22.7875 7.93387 22.7111 8.0312 22.6146L20.5312 10.1146C20.6288 10.0178 20.7063 9.90256 20.7592 9.77562C20.8121 9.64868 20.8393 9.51253 20.8393 9.37502C20.8393 9.23751 20.8121 9.10135 20.7592 8.97442C20.7063 8.84748 20.6288 8.73227 20.5312 8.63544L16.3645 4.46877C16.2677 4.37113 16.1525 4.29364 16.0256 4.24076C15.8986 4.18787 15.7625 4.16064 15.625 4.16064C15.4874 4.16064 15.3513 4.18787 15.2243 4.24076C15.0974 4.29364 14.9822 4.37113 14.8854 4.46877L2.38537 16.9688C2.28882 17.0661 2.21244 17.1815 2.16061 17.3084C2.10877 17.4354 2.08249 17.5713 2.08328 17.7084V21.875C2.08328 22.1513 2.19303 22.4162 2.38838 22.6116C2.58373 22.8069 2.84868 22.9167 3.12495 22.9167ZM4.16662 18.1354L15.625 6.6771L18.3229 9.37502L6.86453 20.8334H4.16662V18.1354Z" fill="#0BB5C9"/>
<path d="M18.448 2.38545C18.3509 2.28832 18.2356 2.21128 18.1087 2.15872C17.9818 2.10616 17.8458 2.0791 17.7084 2.0791C17.431 2.0791 17.165 2.1893 16.9689 2.38545C16.7727 2.5816 16.6625 2.84763 16.6625 3.12503C16.6625 3.40243 16.7727 3.66846 16.9689 3.86461L21.1355 8.03128C21.2324 8.12892 21.3476 8.20641 21.4745 8.25929C21.6014 8.31218 21.7376 8.33941 21.8751 8.33941C22.0126 8.33941 22.1488 8.31218 22.2757 8.25929C22.4026 8.20641 22.5178 8.12892 22.6147 8.03128C22.7123 7.93445 22.7898 7.81924 22.8427 7.6923C22.8956 7.56536 22.9228 7.42921 22.9228 7.2917C22.9228 7.15419 22.8956 7.01803 22.8427 6.8911C22.7898 6.76416 22.7123 6.64895 22.6147 6.55212L18.448 2.38545Z" fill="#0BB5C9"/>
</svg>
