<svg width="36" height="34" viewBox="0 0 36 34" fill="none" xmlns="http://www.w3.org/2000/svg">
<path d="M8.99317 29.7501H26.9795C28.1721 29.7501 29.3158 29.3023 30.1591 28.5053C31.0023 27.7082 31.4761 26.6272 31.4761 25.5001V8.50007C31.4761 7.3729 31.0023 6.29189 30.1591 5.49486C29.3158 4.69783 28.1721 4.25007 26.9795 4.25007H25.4806C25.4806 3.87434 25.3227 3.51401 25.0416 3.24833C24.7605 2.98266 24.3793 2.8334 23.9818 2.8334C23.5843 2.8334 23.203 2.98266 22.9219 3.24833C22.6408 3.51401 22.4829 3.87434 22.4829 4.25007H13.4898C13.4898 3.87434 13.3318 3.51401 13.0507 3.24833C12.7697 2.98266 12.3884 2.8334 11.9909 2.8334C11.5934 2.8334 11.2121 2.98266 10.931 3.24833C10.6499 3.51401 10.492 3.87434 10.492 4.25007H8.99317C7.8006 4.25007 6.65687 4.69783 5.8136 5.49486C4.97033 6.29189 4.49658 7.3729 4.49658 8.50007V25.5001C4.49658 26.6272 4.97033 27.7082 5.8136 28.5053C6.65687 29.3023 7.8006 29.7501 8.99317 29.7501ZM7.49431 8.50007C7.49431 8.12434 7.65222 7.76401 7.93331 7.49833C8.2144 7.23266 8.59564 7.0834 8.99317 7.0834H10.492V8.50007C10.492 8.87579 10.6499 9.23613 10.931 9.5018C11.2121 9.76748 11.5934 9.91674 11.9909 9.91674C12.3884 9.91674 12.7697 9.76748 13.0507 9.5018C13.3318 9.23613 13.4898 8.87579 13.4898 8.50007V7.0834H22.4829V8.50007C22.4829 8.87579 22.6408 9.23613 22.9219 9.5018C23.203 9.76748 23.5843 9.91674 23.9818 9.91674C24.3793 9.91674 24.7605 9.76748 25.0416 9.5018C25.3227 9.23613 25.4806 8.87579 25.4806 8.50007V7.0834H26.9795C27.377 7.0834 27.7583 7.23266 28.0394 7.49833C28.3205 7.76401 28.4784 8.12434 28.4784 8.50007V12.7501H7.49431V8.50007ZM7.49431 15.5834H28.4784V25.5001C28.4784 25.8758 28.3205 26.2361 28.0394 26.5018C27.7583 26.7675 27.377 26.9167 26.9795 26.9167H8.99317C8.59564 26.9167 8.2144 26.7675 7.93331 26.5018C7.65222 26.2361 7.49431 25.8758 7.49431 25.5001V15.5834Z" fill="#0BB5C9"/>
</svg>
