<svg width="25" height="25" viewBox="0 0 25 25" fill="none" xmlns="http://www.w3.org/2000/svg">
<path d="M3.12495 22.9169H7.29162C7.42871 22.9177 7.56461 22.8914 7.69152 22.8396C7.81843 22.7877 7.93387 22.7113 8.0312 22.6148L20.5312 10.1148C20.6288 10.0179 20.7063 9.90274 20.7592 9.7758C20.8121 9.64887 20.8393 9.51271 20.8393 9.3752C20.8393 9.23769 20.8121 9.10154 20.7592 8.9746C20.7063 8.84766 20.6288 8.73245 20.5312 8.63562L16.3645 4.46895C16.2677 4.37132 16.1525 4.29382 16.0256 4.24094C15.8986 4.18806 15.7625 4.16083 15.625 4.16083C15.4874 4.16083 15.3513 4.18806 15.2243 4.24094C15.0974 4.29382 14.9822 4.37132 14.8854 4.46895L2.38537 16.969C2.28882 17.0663 2.21244 17.1817 2.16061 17.3086C2.10877 17.4355 2.08249 17.5714 2.08328 17.7085V21.8752C2.08328 22.1515 2.19303 22.4164 2.38838 22.6118C2.58373 22.8071 2.84868 22.9169 3.12495 22.9169ZM4.16662 18.1356L15.625 6.67728L18.3229 9.3752L6.86453 20.8335H4.16662V18.1356Z" fill="#464255"/>
<path d="M18.448 2.38539C18.3509 2.28826 18.2356 2.21122 18.1087 2.15866C17.9818 2.10609 17.8458 2.07904 17.7084 2.07904C17.431 2.07904 17.165 2.18924 16.9689 2.38539C16.7727 2.58154 16.6625 2.84757 16.6625 3.12497C16.6625 3.40237 16.7727 3.6684 16.9689 3.86455L21.1355 8.03122C21.2324 8.12886 21.3476 8.20635 21.4745 8.25923C21.6014 8.31212 21.7376 8.33935 21.8751 8.33935C22.0126 8.33935 22.1488 8.31212 22.2757 8.25923C22.4026 8.20635 22.5178 8.12886 22.6147 8.03122C22.7123 7.93439 22.7898 7.81918 22.8427 7.69224C22.8956 7.5653 22.9228 7.42915 22.9228 7.29164C22.9228 7.15413 22.8956 7.01797 22.8427 6.89104C22.7898 6.7641 22.7123 6.64889 22.6147 6.55205L18.448 2.38539Z" fill="#464255"/>
</svg>
