<svg width="29" height="28" viewBox="0 0 29 28" fill="none" xmlns="http://www.w3.org/2000/svg">
<path d="M4.73372 23.3333H11.8343C11.8343 23.9522 12.0837 24.5457 12.5275 24.9832C12.9714 25.4208 13.5734 25.6667 14.2012 25.6667C14.8289 25.6667 15.4309 25.4208 15.8748 24.9832C16.3187 24.5457 16.568 23.9522 16.568 23.3333H23.6686C23.9825 23.3333 24.2835 23.2104 24.5054 22.9916C24.7274 22.7728 24.8521 22.4761 24.8521 22.1667C24.8521 21.8572 24.7274 21.5605 24.5054 21.3417C24.2835 21.1229 23.9825 21 23.6686 21V12.8333C23.6686 10.358 22.6712 7.98401 20.8957 6.23367C19.1202 4.48333 16.7121 3.5 14.2012 3.5C11.6902 3.5 9.28217 4.48333 7.50668 6.23367C5.73118 7.98401 4.73372 10.358 4.73372 12.8333V21C4.41986 21 4.11885 21.1229 3.89691 21.3417C3.67498 21.5605 3.55029 21.8572 3.55029 22.1667C3.55029 22.4761 3.67498 22.7728 3.89691 22.9916C4.11885 23.2104 4.41986 23.3333 4.73372 23.3333ZM7.10059 12.8333C7.10059 10.9768 7.84868 9.19634 9.1803 7.88359C10.5119 6.57083 12.318 5.83333 14.2012 5.83333C16.0844 5.83333 17.8904 6.57083 19.222 7.88359C20.5537 9.19634 21.3018 10.9768 21.3018 12.8333V21H7.10059V12.8333Z" fill="#0BB5C9"/>
</svg>
