<svg width="27" height="25" viewBox="0 0 27 25" fill="none" xmlns="http://www.w3.org/2000/svg">
<path d="M13.2132 17.158C12.9585 17.1559 12.7147 17.0604 12.5331 16.8917L2.91477 7.80076C2.73957 7.6293 2.64262 7.39966 2.64481 7.1613C2.647 6.92294 2.74816 6.69493 2.92649 6.52638C3.10482 6.35783 3.34606 6.26222 3.59825 6.26015C3.85044 6.25808 4.09341 6.34971 4.27481 6.5153L13.2132 14.9635L22.1515 6.5153C22.2402 6.42848 22.3464 6.35922 22.4637 6.31158C22.5811 6.26393 22.7073 6.23885 22.835 6.2378C22.9627 6.23676 23.0893 6.25976 23.2076 6.30547C23.3258 6.35118 23.4331 6.41868 23.5235 6.50404C23.6138 6.58939 23.6852 6.6909 23.7336 6.80262C23.7819 6.91434 23.8062 7.03405 23.8051 7.15476C23.804 7.27547 23.7775 7.39476 23.7271 7.50567C23.6767 7.61659 23.6034 7.7169 23.5115 7.80076L13.8932 16.8917C13.7116 17.0604 13.4678 17.1559 13.2132 17.158Z" fill="#B9BBBD"/>
</svg>
