<svg width="50" height="50" viewBox="0 0 50 50" fill="none" xmlns="http://www.w3.org/2000/svg">
    <g clip-path="url(#clip0_2_222)">
        <path d="M43.1975 30.3805C40.6841 30.3805 38.6466 28.343 38.6466 25.8296C38.6466 28.343 36.6091 30.3805 34.0957 30.3805C31.5822 30.3805 29.5447 28.343 29.5447 25.8296C29.5447 28.343 27.5072 30.3805 24.9938 30.3805C22.5608 30.3805 20.5738 28.4711 20.4493 26.0691C20.3247 28.4711 18.3378 30.3805 15.9047 30.3805C13.3913 30.3805 11.3538 28.343 11.3538 25.8296H11.3412C11.3412 28.343 9.30369 30.3805 6.79027 30.3805C5.62746 30.3805 4.56709 29.9438 3.7627 29.2263V49.2415H46.2253V29.2263C45.4207 29.9438 44.3602 30.3805 43.1975 30.3805Z" fill="#F05475"/>
        <path d="M44.2024 30.2681V49.2416H46.225V29.2263C45.6596 29.7306 44.9675 30.0954 44.2024 30.2681Z" fill="#E21743"/>
        <path d="M44.7145 12.1768H5.2732L2.23926 24.3126V25.8296C2.23926 28.343 4.27675 30.3805 6.79017 30.3805C9.30359 30.3805 11.3411 28.343 11.3411 25.8296H11.3537C11.3537 28.343 13.3912 30.3805 15.9046 30.3805C18.3377 30.3805 20.3247 28.4711 20.4492 26.069C20.5738 28.4711 22.5607 30.3805 24.9937 30.3805C27.5072 30.3805 29.5447 28.343 29.5447 25.8296C29.5447 28.343 31.5821 30.3805 34.0956 30.3805C36.609 30.3805 38.6465 28.343 38.6465 25.8296C38.6465 28.343 40.684 30.3805 43.1974 30.3805C45.7108 30.3805 47.7483 28.343 47.7483 25.8296V24.3126L44.7145 12.1768Z" fill="white"/>
        <path d="M20.4429 12.1768V26.1518C20.4448 26.1242 20.4477 26.0968 20.4491 26.069C20.5737 28.4711 22.5607 30.3805 24.9937 30.3805C27.5071 30.3805 29.5446 28.343 29.5446 25.8296V12.1768H20.4429Z" fill="#B6E6FA"/>
        <path d="M6.79017 30.3805C4.27675 30.3805 2.23926 28.343 2.23926 25.8296V24.3126L5.2732 12.1768H12.8581L11.3454 26.0007C11.3433 25.9438 11.3411 25.887 11.3411 25.8296C11.3411 28.343 9.30349 30.3805 6.79017 30.3805Z" fill="#B6E6FA"/>
        <path d="M10.8355 12.1768L9.32276 26.0007C9.32063 25.9438 9.31841 25.887 9.31841 25.8296C9.31841 27.9952 7.80518 29.8063 5.77881 30.2663C6.10425 30.3401 6.44233 30.3805 6.79012 30.3805C9.30354 30.3805 11.341 28.343 11.341 25.8296C11.341 25.8869 11.3433 25.9437 11.3454 26.0007L12.858 12.1768H10.8355Z" fill="#54C9F3"/>
        <path d="M43.1975 30.3805C45.7109 30.3805 47.7484 28.343 47.7484 25.8296V24.3126L44.7145 12.1768H37.1296L38.6423 26.0007C38.6444 25.9438 38.6466 25.887 38.6466 25.8296C38.6466 28.343 40.6841 30.3805 43.1975 30.3805Z" fill="#B6E6FA"/>
        <path d="M44.7146 12.1768H42.6919L45.7259 24.3126V25.8296C45.7259 27.9952 44.2127 29.8063 42.1863 30.2663C42.5117 30.3401 42.8498 30.3805 43.1976 30.3805C45.711 30.3805 47.7485 28.343 47.7485 25.8296V24.3126L44.7146 12.1768Z" fill="#54C9F3"/>
        <path d="M25 25.0173C31.6989 25.0173 37.1294 19.5868 37.1294 12.8879C37.1294 6.189 31.6989 0.758484 25 0.758484C18.3011 0.758484 12.8706 6.189 12.8706 12.8879C12.8706 19.5868 18.3011 25.0173 25 25.0173Z" fill="#FEE95D"/>
        <path d="M25.0001 0.758484C24.6595 0.758484 24.3223 0.773249 23.9888 0.800757C30.2144 1.31471 35.1069 6.52965 35.1069 12.8879C35.1069 19.2461 30.2143 24.4611 23.9888 24.975C24.3223 25.0025 24.6595 25.0173 25.0001 25.0173C31.699 25.0173 37.1295 19.5867 37.1295 12.8878C37.1295 6.18884 31.699 0.758484 25.0001 0.758484Z" fill="#FCAD42"/>
        <path d="M3.76245 33.2691H18.9322V43.1737H3.76245V33.2691Z" fill="#8AD8F6"/>
        <path d="M16.9097 33.2691H18.9323V43.1737H16.9097V33.2691Z" fill="#00ADEB"/>
        <path d="M31.0618 33.2691H46.2315V43.1737H31.0618V33.2691Z" fill="#8AD8F6"/>
        <path d="M44.2087 33.2691H46.2314V43.1737H44.2087V33.2691Z" fill="#00ADEB"/>
        <path d="M18.9321 33.2691H31.0553V49.2416H18.9321V33.2691Z" fill="#FEE95D"/>
        <path d="M29.0326 33.2691V47.2189H18.9321V49.2415H31.0553V33.2691H29.0326Z" fill="#FCAD42"/>
        <path d="M21.4637 15.2107H19.4411C18.324 15.2107 17.4185 14.3051 17.4185 13.188V10.6534H23.4863V13.188C23.4863 14.3051 22.5808 15.2107 21.4637 15.2107Z" fill="white"/>
        <path d="M32.5818 12.4997C32.5818 15.2086 31.2235 16.2416 29.5479 16.2416C27.8722 16.2416 26.5139 15.2086 26.5139 12.4997C26.5139 9.79082 27.8722 7.59485 29.5479 7.59485C31.2235 7.59485 32.5818 9.79082 32.5818 12.4997Z" fill="white"/>
        <path d="M14.5834 37.2638H13.0664V35.7468H14.5834V37.2638ZM11.5495 37.2638H10.0325V35.7468H11.5495V37.2638ZM8.51551 37.2638H6.99854V35.7468H8.51551V37.2638Z" fill="white"/>
        <path d="M46.9835 48.483V40.1871H45.4665V42.4151H31.8201V34.0275H45.4665V38.6733H46.9835V29.547C47.9248 28.5884 48.5068 27.276 48.5068 25.8296V24.2193L45.3066 11.4183H37.8048C37.4263 8.08344 35.767 5.03028 33.1227 2.88134L32.166 4.05861C34.8383 6.2303 36.3711 9.44851 36.3711 12.8879C36.3711 17.2428 33.9097 21.0331 30.3056 22.9426L30.3063 16.9367C32.2208 16.6089 33.3404 15.003 33.3404 12.4996C33.3404 9.32392 31.6745 6.83628 29.5479 6.83628C27.4213 6.83628 25.7555 9.32392 25.7555 12.4996C25.7555 15.0029 26.8749 16.6088 28.7893 16.9366L28.7886 23.609C27.6031 24.0292 26.328 24.2588 25.0001 24.2588C23.6706 24.2588 22.394 24.0286 21.2071 23.6074L21.2105 15.9691H21.4637C22.9972 15.9691 24.2448 14.7215 24.2448 13.1879V7.62329H22.7278V9.89501H21.2108V7.62582H19.6939V9.89501H18.1769V7.62329H16.6599V13.188C16.6599 14.7216 17.9075 15.9692 19.441 15.9692H19.6936L19.6904 22.9404C16.0885 21.0301 13.6292 17.2411 13.6292 12.8879C13.6291 6.61794 18.7301 1.51697 25 1.51697C27.1299 1.51697 29.206 2.1091 31.0041 3.22943L31.8063 1.94193C29.7673 0.671513 27.4137 0 25 0C18.3905 0 12.9282 5.00146 12.1964 11.4183H4.68091L1.48071 24.2193V25.8296C1.48071 27.276 2.06272 28.5884 3.00395 29.547V48.483H0.734863V50H49.2653V48.483H46.9835ZM46.9899 25.8296C46.9899 27.9208 45.2886 29.622 43.1974 29.622C41.1062 29.622 39.405 27.9208 39.405 25.8296H39.3865L39.3039 25.0742H46.9899V25.8296ZM44.1222 12.9353L46.7777 23.5573H39.1378L37.9755 12.9353H44.1222ZM36.9675 17.6701L37.6117 23.5573H32.2217C34.3367 22.1212 36.0039 20.0733 36.9675 17.6701ZM37.7778 25.0742L37.8826 26.0315C37.7772 28.0292 36.119 29.622 34.0956 29.622C32.0455 29.622 30.3712 27.9866 30.3063 25.9521L30.3059 25.0743H37.7778V25.0742ZM27.2724 12.4997C27.2724 10.5385 28.2068 8.35336 29.5478 8.35336C30.8888 8.35336 31.8233 10.5385 31.8233 12.4997C31.8233 14.4794 31.0577 15.4831 29.5478 15.4831C28.0379 15.4831 27.2724 14.4793 27.2724 12.4997ZM25 25.7759C26.3181 25.7759 27.5904 25.5765 28.7889 25.2072L28.7892 25.8296H28.7862C28.7862 27.9208 27.085 29.622 24.9938 29.622C22.9791 29.622 21.3189 28.051 21.2076 26.0433L21.2072 25.2061C22.4068 25.5761 23.6806 25.7759 25 25.7759ZM19.4409 14.4522C18.7438 14.4522 18.1768 13.8851 18.1768 13.188V11.4119H22.7277V13.188C22.7277 13.8851 22.1607 14.4522 21.4636 14.4522H19.4409ZM20.4491 28.5792C21.3816 30.1185 23.0727 31.1391 24.9938 31.1391C26.9228 31.1391 28.6148 30.1049 29.5447 28.5622C30.4746 30.1049 32.1666 31.1391 34.0956 31.1391C36.0246 31.1391 37.7166 30.1049 38.6465 28.5622C39.5764 30.1049 41.2685 31.1391 43.1974 31.1391C44.0089 31.1391 44.7781 30.9555 45.4665 30.6286V32.5106H4.52092V30.6286C5.20942 30.9554 5.97863 31.1391 6.79011 31.1391C8.72354 31.1391 10.4188 30.1004 11.3473 28.5516C12.2758 30.1004 13.9712 31.1391 15.9046 31.1391C17.8256 31.139 19.5167 30.1185 20.4491 28.5792ZM12.1122 25.7578L12.1881 25.0742H15.9046V23.5573H12.3567L13.0155 17.6282C14.249 20.7358 16.6575 23.2537 19.69 24.6305L19.6906 26.0436C19.5793 28.0512 17.9191 29.622 15.9046 29.622C13.8134 29.622 12.1122 27.9208 12.1122 25.8296V25.7578ZM5.86536 12.9353H12.0106L10.8304 23.5573H3.20985L5.86536 12.9353ZM2.99768 25.8296V25.0742H10.5825V25.8296C10.5825 27.9208 8.88131 29.622 6.79011 29.622C4.69891 29.622 2.99768 27.9208 2.99768 25.8296ZM18.1737 48.483H4.52092V43.9321H18.1737V48.483ZM18.1737 42.4151H4.52092V34.0275H18.1737V42.4151ZM30.2968 48.483H19.6906V43.9321V34.0275H30.2968V48.483ZM45.4665 48.483H31.8138V43.9321H45.4665V48.483Z" fill="black"/>
        <path d="M22.7183 39.3843H24.2352V42.4183H22.7183V39.3843Z" fill="black"/>
        <path d="M25.7522 39.3843H27.2692V42.4183H25.7522V39.3843Z" fill="black"/>
    </g>
    <defs>
        <clipPath id="clip0_2_222">
            <rect width="50" height="50" fill="white"/>
        </clipPath>
    </defs>
</svg>
