<svg width="19" height="21" viewBox="0 0 19 21" fill="none" xmlns="http://www.w3.org/2000/svg">
<path d="M0 7.35V19.95C0 20.2285 0.110625 20.4956 0.307538 20.6925C0.504451 20.8894 0.771522 21 1.05 21H6.3C6.57848 21 6.84555 20.8894 7.04246 20.6925C7.23937 20.4956 7.35 20.2285 7.35 19.95V12.6H11.55V19.95C11.55 20.2285 11.6606 20.4956 11.8575 20.6925C12.0544 20.8894 12.3215 21 12.6 21H17.85C18.1285 21 18.3955 20.8894 18.5925 20.6925C18.7894 20.4956 18.9 20.2285 18.9 19.95V7.35C18.9 7.18699 18.862 7.02622 18.7891 6.88043C18.7162 6.73463 18.6104 6.6078 18.48 6.51L10.08 0.21C9.89825 0.0736868 9.67719 0 9.45 0C9.22281 0 9.00175 0.0736868 8.82 0.21L0.42 6.51C0.289594 6.6078 0.18375 6.73463 0.110851 6.88043C0.0379522 7.02622 0 7.18699 0 7.35ZM2.1 7.875L9.45 2.3625L16.8 7.875V18.9H13.65V11.55C13.65 11.2715 13.5394 11.0045 13.3425 10.8075C13.1455 10.6106 12.8785 10.5 12.6 10.5H6.3C6.02152 10.5 5.75445 10.6106 5.55754 10.8075C5.36062 11.0045 5.25 11.2715 5.25 11.55V18.9H2.1V7.875Z" fill="#0BB5C9"/>
</svg>
