<svg width="45" height="45" viewBox="0 0 45 45" fill="none" xmlns="http://www.w3.org/2000/svg">
<g clip-path="url(#clip0_115_1512)">
<path fill-rule="evenodd" clip-rule="evenodd" d="M22.5 45C34.8923 45 45 34.8923 45 22.5C45 10.1077 34.8923 0 22.5 0C10.1077 0 0 10.1077 0 22.5C0 34.8923 10.1077 45 22.5 45Z" fill="#EC5353"/>
<path d="M32.1955 15.0654H12.8045C12.695 15.0654 12.5906 15.1105 12.5153 15.1898C12.4394 15.2697 12.4 15.3764 12.4058 15.4859L13.4247 35.1462C13.4698 36.0208 14.1909 36.706 15.0672 36.706H29.9327C30.8091 36.706 31.5302 36.0208 31.5752 35.1462L32.5942 15.4859C32.5999 15.3764 32.5605 15.2697 32.4846 15.1898C32.4094 15.1105 32.305 15.0654 32.1955 15.0654ZM16.17 19.0289C16.1626 18.7613 16.2602 18.5063 16.445 18.3112C16.6299 18.116 16.8792 18.0042 17.1468 17.9962C17.7035 17.9848 18.1657 18.4218 18.1817 18.9741L18.552 32.775C18.56 33.0421 18.4624 33.2976 18.2769 33.4934C18.0921 33.688 17.8422 33.7998 17.5741 33.8078H17.5445C17.2871 33.8078 17.0435 33.7102 16.8547 33.5311C16.6602 33.3462 16.5483 33.0969 16.5409 32.8299L16.17 19.0289ZM21.4942 32.787V18.9843C21.4942 18.4292 21.9455 17.9779 22.5 17.9779C23.0545 17.9779 23.5058 18.4292 23.5058 18.9843V32.787C23.5058 33.3426 23.0545 33.7946 22.5 33.7946C21.9455 33.7946 21.4942 33.3427 21.4942 32.787ZM28.4591 32.8287C28.4517 33.0968 28.3398 33.3462 28.1453 33.531C27.9565 33.7101 27.7129 33.8077 27.4555 33.8077H27.4242C27.1566 33.7997 26.9073 33.6879 26.723 33.4928C26.5375 33.2971 26.44 33.0421 26.448 32.7739L26.8182 18.9753C26.8342 18.4224 27.2929 17.9825 27.8463 17.9962H27.8532C28.1207 18.0042 28.37 18.116 28.5549 18.3112C28.7397 18.5063 28.8373 18.7613 28.8299 19.0289L28.4591 32.8287ZM34.1895 11.9897V13.0486H10.8105V11.9897C10.8105 11.4055 11.2858 10.9303 11.87 10.9303H19.5601C19.7637 10.9303 19.9349 10.7768 19.9571 10.5742C20.0993 9.27459 21.1924 8.29443 22.5 8.29443C23.8076 8.29443 24.9007 9.27459 25.0429 10.5742C25.0651 10.7767 25.2362 10.9303 25.4399 10.9303H33.13C33.7142 10.9303 34.1895 11.4055 34.1895 11.9897Z" fill="white"/>
</g>
<defs>
<clipPath id="clip0_115_1512">
<rect width="45" height="45" fill="white"/>
</clipPath>
</defs>
</svg>
