<svg width="72" height="72" viewBox="0 0 72 72" fill="none" xmlns="http://www.w3.org/2000/svg">
<path d="M5.0084 37.5989L25.4181 57.9973C25.7367 58.3012 26.1368 58.506 26.5696 58.5867C27.0024 58.6674 27.4493 58.6206 27.856 58.452C28.2628 58.2835 28.6117 58.0003 28.8605 57.6371C29.1093 57.2738 29.2472 56.8461 29.2574 56.406L29.2549 47.2488L65.2449 47.2388C65.8415 47.2387 66.4135 47.0015 66.8353 46.5796C67.257 46.1576 67.4938 45.5854 67.4936 44.9888L67.4887 26.9938C67.4885 26.3972 67.2514 25.8252 66.8294 25.4034C66.4075 24.9817 65.8353 24.7449 65.2387 24.745L29.2486 24.755L29.2461 15.5978C28.9758 14.1313 28.2258 13.3817 26.9961 13.349C26.7007 13.349 26.4082 13.4073 26.1354 13.5205C25.8625 13.6336 25.6147 13.7995 25.406 14.0085L5.00752 34.4183C4.58594 34.8402 4.34921 35.4123 4.34938 36.0087C4.34954 36.6052 4.58659 37.1772 5.0084 37.5989Z" fill="#0BB5C9"/>
</svg>
