<svg width="71" height="71" viewBox="0 0 71 71" fill="none" xmlns="http://www.w3.org/2000/svg">
<path d="M66.0699 33.9313L45.9437 13.805C45.6295 13.5052 45.2349 13.3031 44.8081 13.2234C44.3812 13.1437 43.9403 13.1897 43.5391 13.3559C43.1378 13.522 42.7935 13.8012 42.548 14.1594C42.3026 14.5177 42.1664 14.9395 42.1562 15.3737V24.4062H6.65625C6.0678 24.4062 5.50345 24.64 5.08736 25.0561C4.67126 25.4722 4.4375 26.0365 4.4375 26.625V44.375C4.4375 44.9634 4.67126 45.5278 5.08736 45.9439C5.50345 46.36 6.0678 46.5937 6.65625 46.5937H42.1562V55.6262C42.4225 57.0729 43.1621 57.8125 44.375 57.845C44.6664 57.8451 44.9549 57.7877 45.224 57.6761C45.4932 57.5646 45.7377 57.401 45.9437 57.1949L66.0699 37.0686C66.4859 36.6525 66.7196 36.0883 66.7196 35.5C66.7196 34.9116 66.4859 34.3474 66.0699 33.9313Z" fill="#0BB5C9"/>
</svg>
