<svg width="31" height="38" viewBox="0 0 31 38" fill="none" xmlns="http://www.w3.org/2000/svg">
<path d="M28.356 8.97823H2.64397C2.49876 8.97823 2.36031 9.03801 2.26044 9.14313C2.15986 9.24907 2.10765 9.39055 2.11522 9.53576L3.46629 35.6049C3.52607 36.7646 4.4823 37.6732 5.64421 37.6732H25.3557C26.5177 37.6732 27.4739 36.7646 27.5336 35.6049L28.8847 9.53576C28.8922 9.39055 28.84 9.24907 28.7394 9.14313C28.6397 9.03801 28.5012 8.97823 28.356 8.97823ZM7.10658 14.2337C7.09679 13.8789 7.22615 13.5407 7.47123 13.282C7.71632 13.0233 8.04695 12.875 8.4017 12.8644C9.13999 12.8493 9.75276 13.4287 9.77397 14.1611L10.265 32.4608C10.2756 32.8149 10.1462 33.1538 9.90031 33.4133C9.65522 33.6714 9.32389 33.8196 8.96832 33.8302H8.92905C8.58782 33.8302 8.26476 33.7008 8.01443 33.4633C7.75653 33.2182 7.60817 32.8876 7.59838 32.5336L7.10658 14.2337ZM14.1663 32.4767V14.1746C14.1663 13.4385 14.7647 12.8401 15.5 12.8401C16.2353 12.8401 16.8337 13.4385 16.8337 14.1746V32.4767C16.8337 33.2135 16.2353 33.8127 15.5 33.8127C14.7647 33.8127 14.1663 33.2136 14.1663 32.4767ZM23.4016 32.5319C23.3918 32.8875 23.2435 33.2181 22.9856 33.4632C22.7352 33.7007 22.4122 33.8301 22.071 33.8301H22.0293C21.6746 33.8195 21.344 33.6712 21.0996 33.4125C20.8537 33.1531 20.7243 32.8149 20.7349 32.4593L21.2259 14.1626C21.2471 13.4295 21.8554 12.8462 22.5891 12.8644H22.5982C22.9529 12.875 23.2836 13.0233 23.5286 13.282C23.7737 13.5407 23.9031 13.8789 23.8933 14.2337L23.4016 32.5319ZM31 4.89986V6.30395H0V4.89986C0 4.12521 0.630139 3.49507 1.40479 3.49507H11.6017C11.8717 3.49507 12.0987 3.29159 12.1282 3.02297C12.3167 1.29967 13.7661 0 15.5 0C17.2339 0 18.6833 1.29967 18.8718 3.02297C18.9013 3.29148 19.1282 3.49507 19.3983 3.49507H29.5952C30.3699 3.49507 31 4.12521 31 4.89986Z" fill="white"/>
</svg>
