<svg width="28" height="28" viewBox="0 0 28 28" fill="none" xmlns="http://www.w3.org/2000/svg">
<path d="M27.0079 13.5569C24.3342 8.92731 19.35 6.05109 14 6.05109C8.65002 6.05109 3.66577 8.92731 0.992065 13.5569C0.835694 13.8278 0.835694 14.1611 0.992065 14.4319C3.66919 19.0684 8.65344 21.9489 14 21.9489C19.3466 21.9489 24.3308 19.0684 27.0079 14.4319C27.1643 14.1611 27.1643 13.8278 27.0079 13.5569ZM14 20.1989C9.44726 20.1989 5.19189 17.8345 2.77197 13.9944C5.18848 10.1612 9.44385 7.80109 14 7.80109C18.5561 7.80109 22.8115 10.1612 25.228 13.9945C22.8081 17.8345 18.5527 20.1989 14 20.1989Z" fill="black"/>
<path d="M14 8.53125C10.9845 8.53125 8.53125 10.9845 8.53125 14C8.53125 17.0155 10.9845 19.4688 14 19.4688C17.0155 19.4688 19.4688 17.0155 19.4688 14C19.4688 10.9845 17.0155 8.53125 14 8.53125ZM14 17.7188C11.9492 17.7188 10.2812 16.0504 10.2812 14C10.2812 11.9496 11.9492 10.2812 14 10.2812C16.0508 10.2812 17.7188 11.9496 17.7188 14C17.7188 16.0504 16.0508 17.7188 14 17.7188Z" fill="black"/>
</svg>
