<svg width="283" height="198" viewBox="0 0 283 198" fill="none" xmlns="http://www.w3.org/2000/svg">
<g opacity="0.4">
<path fill-rule="evenodd" clip-rule="evenodd" d="M268.689 198H14.2638C6.46845 198 0 191.326 0 183.283V14.7174C0 6.67416 6.46845 0 14.2638 0H268.523C276.319 0 282.787 6.67416 282.787 14.7174V183.283C282.787 191.326 276.485 198 268.689 198Z" fill="#E6E6E6"/>
<path fill-rule="evenodd" clip-rule="evenodd" d="M268.689 198H181.116L153.75 164.287C152.589 165.656 150.433 166.169 149.106 164.971C147.613 163.773 147.282 161.72 148.443 160.18L201.351 84.5393C202.512 82.6568 205.498 82.6568 206.659 84.5393L280.963 190.641C278.475 194.92 273.997 198 268.689 198Z" fill="#909090"/>
<path fill-rule="evenodd" clip-rule="evenodd" d="M184.765 198H14.2638C9.1222 198 4.64404 195.091 2.15618 190.984L87.5728 84.1971C88.7338 82.6569 91.5534 82.6569 92.7144 84.1971L184.765 198Z" fill="#747475"/>
<path fill-rule="evenodd" clip-rule="evenodd" d="M141.477 92.2402C125.554 92.2402 112.783 79.063 112.783 62.6343C112.783 46.2057 125.554 33.1996 141.477 33.1996C157.399 33.1996 170.17 46.5479 170.17 62.8055C170.17 79.2342 157.399 92.2402 141.477 92.2402Z" fill="#C1C1C1"/>
<path fill-rule="evenodd" clip-rule="evenodd" d="M162.54 56.9871C162.54 73.2446 149.604 86.4218 133.681 86.4218C129.037 86.4218 124.559 85.2239 120.744 83.1703C126.052 88.8177 133.349 92.2403 141.476 92.2403C157.399 92.2403 170.17 79.2343 170.17 62.8056C170.17 51.3397 163.867 41.2429 154.413 36.4512C159.389 41.7563 162.54 48.9439 162.54 56.9871Z" fill="#B5B6B6"/>
</g>
</svg>
