<svg width="25" height="25" viewBox="0 0 25 25" fill="none" xmlns="http://www.w3.org/2000/svg">
    <path d="M23.575 20.9786C23.3585 20.5968 23.0024 20.321 22.5806 20.2129V14.4589C23.2742 14.2786 23.7903 13.6528 23.7903 12.9032V11.6282L21.2585 4.03226H17.5956C17.0472 1.72419 14.9734 0 12.5 0C10.0266 0 7.95282 1.72419 7.40444 4.03226H3.74153L1.20968 11.6282V12.9032C1.20968 13.6528 1.72581 14.2786 2.41935 14.4589V20.2129C1.99758 20.3206 1.64153 20.5968 1.425 20.9786C0.62379 21.0722 0 21.7548 0 22.5806V25H25V22.5806C25 21.7548 24.3762 21.0722 23.575 20.9786ZM22.9839 12.9032C22.9839 13.348 22.6222 13.7097 22.1774 13.7097C21.7327 13.7097 21.371 13.348 21.371 12.9032V12.0968H22.9839V12.9032ZM20.677 4.83871L22.8278 11.2903H21.2911L19.8573 4.83871H20.677ZM19.0315 4.83871L20.4653 11.2903H18.8899L17.8145 4.83871H19.0315ZM20.5645 12.0968V12.9032C20.5645 13.348 20.2028 13.7097 19.7581 13.7097C19.3133 13.7097 18.9516 13.348 18.9516 12.9032V12.0968H20.5645ZM18.0726 11.2903H16.4899L16.227 8.92258C16.7254 8.41815 17.1185 7.81169 17.381 7.13992L18.0726 11.2903ZM18.1452 12.0968V12.9032C18.1452 13.348 17.7835 13.7097 17.3387 13.7097C16.894 13.7097 16.5323 13.348 16.5323 12.9032V12.0968H18.1452ZM12.5 0.806452C14.9456 0.806452 16.9355 2.79637 16.9355 5.24194C16.9355 6.79516 16.1315 8.1621 14.9194 8.95484V6.39435C15.6129 6.21411 16.129 5.58831 16.129 4.83871V2.82258H15.3226V4.83871C15.3226 5.13589 15.1593 5.39315 14.9194 5.53306V2.82258H14.1129V5.53306C13.873 5.39315 13.7097 5.13589 13.7097 4.83871V2.82258H12.9032V4.83871C12.9032 5.58831 13.4194 6.21411 14.1129 6.39435V9.36936C13.6121 9.56573 13.0694 9.67742 12.5 9.67742C11.9306 9.67742 11.3879 9.56573 10.8871 9.36936V6.39435C11.5806 6.21411 12.0968 5.58831 12.0968 4.83871C12.0968 4.00766 11.4685 2.41935 10.4839 2.41935C9.49919 2.41935 8.87097 4.00766 8.87097 4.83871C8.87097 5.58831 9.3871 6.21411 10.0806 6.39435V8.95484C8.86855 8.1621 8.06452 6.79516 8.06452 5.24194C8.06452 2.79637 10.0544 0.806452 12.5 0.806452ZM14.1129 12.0968H15.7258V12.9032C15.7258 13.348 15.3641 13.7097 14.9194 13.7097C14.4746 13.7097 14.1129 13.348 14.1129 12.9032V12.0968ZM14.0911 11.2903L14.0335 10.254C14.5573 10.0931 15.0448 9.85161 15.4847 9.54556L15.6786 11.2903H14.0911ZM13.3065 12.0968V12.9032C13.3065 13.348 12.9448 13.7097 12.5 13.7097C12.0552 13.7097 11.6935 13.348 11.6935 12.9032V12.0968H13.3065ZM11.7165 11.2903L11.7645 10.4262C12.0056 10.4601 12.2496 10.4839 12.5 10.4839C12.7504 10.4839 12.9944 10.4601 13.2355 10.4262L13.2835 11.2903H11.7165ZM9.32137 11.2903L9.51532 9.54556C9.95524 9.85161 10.4427 10.0931 10.9665 10.254L10.9089 11.2903H9.32137ZM10.8871 12.0968V12.9032C10.8871 13.348 10.5254 13.7097 10.0806 13.7097C9.63589 13.7097 9.27419 13.348 9.27419 12.9032V12.0968H10.8871ZM10.4839 5.64516C10.0391 5.64516 9.67742 5.28347 9.67742 4.83871C9.67742 4.23589 10.1823 3.22581 10.4839 3.22581C10.7855 3.22581 11.2903 4.23589 11.2903 4.83871C11.2903 5.28347 10.9286 5.64516 10.4839 5.64516ZM7.61895 7.14032C7.88105 7.8121 8.2746 8.41815 8.77298 8.92298L8.51008 11.2903H6.92742L7.61895 7.14032ZM8.46774 12.0968V12.9032C8.46774 13.348 8.10605 13.7097 7.66129 13.7097C7.21653 13.7097 6.85484 13.348 6.85484 12.9032V12.0968H8.46774ZM7.18548 4.83871L6.11008 11.2903H4.53468L5.96855 4.83871H7.18548ZM6.04839 12.0968V12.9032C6.04839 13.348 5.68669 13.7097 5.24194 13.7097C4.79718 13.7097 4.43548 13.348 4.43548 12.9032V12.0968H6.04839ZM4.32298 4.83871H5.14274L3.70887 11.2903H2.17218L4.32298 4.83871ZM2.01613 12.9032V12.0968H3.62903V12.9032C3.62903 13.348 3.26734 13.7097 2.82258 13.7097C2.37782 13.7097 2.01613 13.348 2.01613 12.9032ZM7.25806 24.1935H0.806452V23.3871H7.25806V24.1935ZM0.806452 22.5806C0.806452 22.1359 1.16815 21.7742 1.59758 21.7742L1.96613 21.7956L2.06532 21.5109C2.17863 21.1859 2.48306 20.9677 2.82258 20.9677C2.87863 20.9677 2.93871 20.9762 3.01129 20.9931L3.25565 21.052L3.41613 20.8589C3.72742 20.4839 4.33669 20.4839 4.64839 20.8589L4.80887 21.052L5.05323 20.9931C5.12581 20.9762 5.18589 20.9677 5.24194 20.9677C5.58145 20.9677 5.88589 21.1859 5.99879 21.5109L6.09798 21.7956L6.39919 21.781C6.42218 21.7798 6.44436 21.777 6.45161 21.7742C6.89637 21.7742 7.25806 22.1359 7.25806 22.5806H0.806452ZM15.3226 24.1935H9.67742V16.129H15.3226V24.1935ZM16.9355 22.5806V24.1935H16.129V15.3226H8.87097V24.1935H8.06452V22.5806C8.06452 21.7548 7.44073 21.0722 6.63952 20.9786C6.33427 20.4403 5.75444 20.106 5.0996 20.1681C4.59194 19.7141 3.80887 19.654 3.22581 19.9839V14.4597C3.54194 14.3774 3.82258 14.2065 4.03226 13.9685C4.32782 14.3044 4.76089 14.5161 5.24194 14.5161C5.72298 14.5161 6.15605 14.3044 6.45161 13.969C6.74718 14.3044 7.18024 14.5161 7.66129 14.5161C8.14234 14.5161 8.5754 14.3044 8.87097 13.969C9.16653 14.3044 9.5996 14.5161 10.0806 14.5161C10.5617 14.5161 10.9948 14.3044 11.2903 13.969C11.5859 14.3044 12.019 14.5161 12.5 14.5161C12.981 14.5161 13.4141 14.3044 13.7097 13.969C14.0052 14.3044 14.4383 14.5161 14.9194 14.5161C15.4004 14.5161 15.8335 14.3044 16.129 13.969C16.4246 14.3044 16.8577 14.5161 17.3387 14.5161C17.8198 14.5161 18.2528 14.3044 18.5484 13.969C18.844 14.3044 19.277 14.5161 19.7581 14.5161C20.2391 14.5161 20.6722 14.3044 20.9677 13.969C21.1774 14.2069 21.4581 14.3782 21.7742 14.4601V19.9843C21.1911 19.654 20.4081 19.7141 19.9004 20.1685C19.2472 20.1056 18.6653 20.4407 18.3605 20.979C17.5593 21.0722 16.9355 21.7548 16.9355 22.5806ZM24.1935 24.1935H17.7419V23.3871H24.1935V24.1935ZM17.7419 22.5806C17.7419 22.1359 18.1036 21.7742 18.5331 21.7742L18.9016 21.7956L19.0008 21.5109C19.1141 21.1859 19.4185 20.9677 19.7581 20.9677C19.8141 20.9677 19.8742 20.9762 19.9468 20.9931L20.1911 21.052L20.3516 20.8589C20.6629 20.4839 21.2722 20.4839 21.5839 20.8589L21.7444 21.052L21.9887 20.9931C22.0613 20.9762 22.1214 20.9677 22.1774 20.9677C22.5169 20.9677 22.8214 21.1859 22.9343 21.5109L23.0335 21.7956L23.3347 21.781C23.3577 21.7798 23.3798 21.777 23.3871 21.7742C23.8319 21.7742 24.1935 22.1359 24.1935 22.5806H17.7419Z" fill="#0BB5C9"/>
</svg>
