<svg width="25" height="24" viewBox="0 0 25 24" fill="none" xmlns="http://www.w3.org/2000/svg">
    <path d="M24.4311 22.7761L18.5974 16.9437C20.1623 15.145 21.1097 12.7982 21.1097 10.2333C21.1097 4.58714 16.5163 0 10.8742 0C5.22683 0 0.638672 4.59246 0.638672 10.2333C0.638672 15.8741 5.23215 20.4665 10.8742 20.4665C13.4397 20.4665 15.787 19.5193 17.5861 17.9548L23.4198 23.7871C23.5582 23.9255 23.7445 24 23.9254 24C24.1064 24 24.2927 23.9308 24.4311 23.7871C24.7079 23.5104 24.7079 23.0528 24.4311 22.7761ZM2.07048 10.2333C2.07048 5.38004 6.01991 1.43681 10.8689 1.43681C15.7232 1.43681 19.6673 5.38537 19.6673 10.2333C19.6673 15.0812 15.7232 19.035 10.8689 19.035C6.01991 19.035 2.07048 15.0865 2.07048 10.2333Z"
          fill="#A4A4A4"/>
</svg>
