<svg width="300" height="189" viewBox="0 0 300 189" fill="none" xmlns="http://www.w3.org/2000/svg">
    <g filter="url(#filter0_d_1_620)">
        <rect x="20" y="5" width="260" height="149" rx="10" fill="#0BB5C9"/>
    </g>
    <path d="M52.5293 38.2051C51.748 38.2051 51.0703 38.0254 50.4961 37.666C49.9258 37.3066 49.4863 36.7969 49.1777 36.1367C48.8691 35.4766 48.7148 34.6914 48.7148 33.7812V33.7695C48.7148 32.8555 48.8691 32.0684 49.1777 31.4082C49.4863 30.748 49.9258 30.2383 50.4961 29.8789C51.0664 29.5195 51.7441 29.3398 52.5293 29.3398C53.1504 29.3398 53.7109 29.4629 54.2109 29.709C54.7148 29.9512 55.127 30.2871 55.4473 30.7168C55.7715 31.1465 55.9688 31.6406 56.0391 32.1992V32.2344H54.7324L54.7266 32.2109C54.6484 31.8633 54.5059 31.5625 54.2988 31.3086C54.0918 31.0547 53.8379 30.8574 53.5371 30.7168C53.2363 30.5762 52.9004 30.5059 52.5293 30.5059C52.0254 30.5059 51.5879 30.6387 51.2168 30.9043C50.8496 31.1699 50.5645 31.5469 50.3613 32.0352C50.1621 32.5195 50.0625 33.0977 50.0625 33.7695V33.7812C50.0625 34.4453 50.1621 35.0215 50.3613 35.5098C50.5645 35.998 50.8496 36.375 51.2168 36.6406C51.5879 36.9062 52.0273 37.0391 52.5352 37.0391C52.9062 37.0391 53.2422 36.9766 53.543 36.8516C53.8477 36.7266 54.1016 36.5488 54.3047 36.3184C54.5078 36.084 54.6465 35.8086 54.7207 35.4922L54.7324 35.4688H56.0449L56.0391 35.498C55.957 36.041 55.7578 36.5156 55.4414 36.9219C55.125 37.3281 54.7188 37.6445 54.2227 37.8711C53.7266 38.0938 53.1621 38.2051 52.5293 38.2051ZM57.6797 38V29.1406H58.9512V38H57.6797ZM60.8613 38V31.6367H62.1387V38H60.8613ZM61.5059 30.5C61.2871 30.5 61.0996 30.4219 60.9434 30.2656C60.7871 30.1094 60.709 29.9219 60.709 29.7031C60.709 29.4844 60.7871 29.2988 60.9434 29.1465C61.0996 28.9902 61.2871 28.9121 61.5059 28.9121C61.7246 28.9121 61.9121 28.9902 62.0684 29.1465C62.2246 29.2988 62.3027 29.4844 62.3027 29.7031C62.3027 29.9219 62.2246 30.1094 62.0684 30.2656C61.9121 30.4219 61.7246 30.5 61.5059 30.5ZM66.6621 38.123C66.0449 38.123 65.5117 37.9902 65.0625 37.7246C64.6172 37.4551 64.2734 37.0723 64.0312 36.5762C63.7891 36.0801 63.668 35.4883 63.668 34.8008V34.7891C63.668 34.1133 63.7871 33.5312 64.0254 33.043C64.2676 32.5547 64.6113 32.1777 65.0566 31.9121C65.5059 31.6465 66.0391 31.5137 66.6562 31.5137C67.1914 31.5137 67.6504 31.6074 68.0332 31.7949C68.4199 31.9785 68.7266 32.2324 68.9531 32.5566C69.1836 32.877 69.3281 33.2422 69.3867 33.6523L69.3926 33.6816H68.168L68.1621 33.6699C68.0918 33.3574 67.9297 33.0977 67.6758 32.8906C67.4219 32.6797 67.084 32.5742 66.6621 32.5742C66.3105 32.5742 66.0078 32.6641 65.7539 32.8438C65.5 33.0195 65.3047 33.2734 65.168 33.6055C65.0352 33.9375 64.9688 34.332 64.9688 34.7891V34.8008C64.9688 35.2695 65.0371 35.6719 65.1738 36.0078C65.3105 36.3438 65.5059 36.6035 65.7598 36.7871C66.0137 36.9668 66.3145 37.0566 66.6621 37.0566C67.0605 37.0566 67.3828 36.9688 67.6289 36.793C67.8789 36.6172 68.0547 36.3574 68.1562 36.0137L68.168 35.9844L69.3867 35.9785L69.375 36.0312C69.3008 36.4453 69.1504 36.8086 68.9238 37.1211C68.6973 37.4336 68.3945 37.6797 68.0156 37.8594C67.6406 38.0352 67.1895 38.123 66.6621 38.123ZM70.8867 38V29.1406H72.1582V38H70.8867ZM74.8945 38L72.6094 35.0176L73.5527 34.2266L76.4473 38H74.8945ZM72.0352 35.8145L71.9824 34.3145H72.2578L74.7773 31.6367H76.2715L73.4004 34.543L72.9082 34.9473L72.0352 35.8145ZM77.3789 40.1973L77.8945 36.752H79.2539L78.2754 40.1973H77.3789ZM84.4395 35.1758V34.0098H90.7852V35.1758H84.4395ZM87.0293 37.7773V31.4082H88.1953V37.7773H87.0293ZM91.6641 38L94.7168 29.5449H95.7773V31.0273H95.3789L93.0469 38H91.6641ZM93.1348 35.7148L93.5039 34.6602H97.3535L97.7227 35.7148H93.1348ZM97.8047 38L95.4785 31.0273V29.5449H96.1406L99.1875 38H97.8047ZM102.48 38.1055C101.949 38.1055 101.484 37.9727 101.086 37.707C100.691 37.4375 100.385 37.0566 100.166 36.5645C99.9512 36.0723 99.8438 35.4922 99.8438 34.8242V34.8125C99.8438 34.1406 99.9512 33.5586 100.166 33.0664C100.381 32.5742 100.686 32.1953 101.08 31.9297C101.475 31.6602 101.941 31.5254 102.48 31.5254C102.918 31.5254 103.311 31.627 103.658 31.8301C104.01 32.0293 104.27 32.3008 104.438 32.6445H104.531V29.1406H105.809V38H104.531V36.998H104.438C104.254 37.3457 103.994 37.6172 103.658 37.8125C103.322 38.0078 102.93 38.1055 102.48 38.1055ZM102.844 37.0156C103.195 37.0156 103.5 36.9277 103.758 36.752C104.016 36.5762 104.213 36.3242 104.35 35.9961C104.486 35.6641 104.555 35.2734 104.555 34.8242V34.8125C104.555 34.3594 104.484 33.9688 104.344 33.6406C104.207 33.3125 104.01 33.0605 103.752 32.8848C103.498 32.7051 103.195 32.6152 102.844 32.6152C102.492 32.6152 102.188 32.7051 101.93 32.8848C101.676 33.0605 101.48 33.3125 101.344 33.6406C101.211 33.9648 101.145 34.3555 101.145 34.8125V34.8242C101.145 35.2773 101.211 35.668 101.344 35.9961C101.48 36.3242 101.676 36.5762 101.93 36.752C102.188 36.9277 102.492 37.0156 102.844 37.0156ZM110.016 38.1055C109.484 38.1055 109.02 37.9727 108.621 37.707C108.227 37.4375 107.92 37.0566 107.701 36.5645C107.486 36.0723 107.379 35.4922 107.379 34.8242V34.8125C107.379 34.1406 107.486 33.5586 107.701 33.0664C107.916 32.5742 108.221 32.1953 108.615 31.9297C109.01 31.6602 109.477 31.5254 110.016 31.5254C110.453 31.5254 110.846 31.627 111.193 31.8301C111.545 32.0293 111.805 32.3008 111.973 32.6445H112.066V29.1406H113.344V38H112.066V36.998H111.973C111.789 37.3457 111.529 37.6172 111.193 37.8125C110.857 38.0078 110.465 38.1055 110.016 38.1055ZM110.379 37.0156C110.73 37.0156 111.035 36.9277 111.293 36.752C111.551 36.5762 111.748 36.3242 111.885 35.9961C112.021 35.6641 112.09 35.2734 112.09 34.8242V34.8125C112.09 34.3594 112.02 33.9688 111.879 33.6406C111.742 33.3125 111.545 33.0605 111.287 32.8848C111.033 32.7051 110.73 32.6152 110.379 32.6152C110.027 32.6152 109.723 32.7051 109.465 32.8848C109.211 33.0605 109.016 33.3125 108.879 33.6406C108.746 33.9648 108.68 34.3555 108.68 34.8125V34.8242C108.68 35.2773 108.746 35.668 108.879 35.9961C109.016 36.3242 109.211 36.5762 109.465 36.752C109.723 36.9277 110.027 37.0156 110.379 37.0156ZM118.646 38V29.5449H120.164L122.854 36.2832H122.953L125.643 29.5449H127.16V38H125.959V31.8008H125.309L126.68 29.7793L123.387 38H122.414L119.127 29.7793L120.492 31.8008H119.848V38H118.646ZM131.801 38.123C131.18 38.123 130.646 37.9902 130.201 37.7246C129.756 37.4551 129.412 37.0742 129.17 36.582C128.932 36.0898 128.812 35.5078 128.812 34.8359V34.8301C128.812 34.166 128.932 33.5859 129.17 33.0898C129.412 32.5938 129.752 32.207 130.189 31.9297C130.631 31.6523 131.146 31.5137 131.736 31.5137C132.33 31.5137 132.84 31.6465 133.266 31.9121C133.695 32.1777 134.025 32.5508 134.256 33.0312C134.486 33.5078 134.602 34.0664 134.602 34.707V35.1523H129.457V34.2441H133.969L133.359 35.0879V34.5781C133.359 34.125 133.289 33.75 133.148 33.4531C133.012 33.1523 132.822 32.9277 132.58 32.7793C132.338 32.6309 132.059 32.5566 131.742 32.5566C131.426 32.5566 131.143 32.6348 130.893 32.791C130.646 32.9434 130.451 33.1699 130.307 33.4707C130.166 33.7715 130.096 34.1406 130.096 34.5781V35.0879C130.096 35.5059 130.166 35.8633 130.307 36.1602C130.447 36.457 130.646 36.6836 130.904 36.8398C131.166 36.9961 131.475 37.0742 131.83 37.0742C132.104 37.0742 132.338 37.0371 132.533 36.9629C132.732 36.8848 132.895 36.7891 133.02 36.6758C133.148 36.5625 133.236 36.4512 133.283 36.3418L133.307 36.2949H134.537L134.525 36.3477C134.471 36.5586 134.375 36.7695 134.238 36.9805C134.102 37.1875 133.92 37.377 133.693 37.5488C133.471 37.7207 133.201 37.8594 132.885 37.9648C132.572 38.0703 132.211 38.123 131.801 38.123ZM136.113 38V31.6367H137.385V32.5977H137.484C137.641 32.2578 137.871 31.9922 138.176 31.8008C138.48 31.6094 138.865 31.5137 139.33 31.5137C140.045 31.5137 140.592 31.7188 140.971 32.1289C141.35 32.5391 141.539 33.123 141.539 33.8809V38H140.262V34.1797C140.262 33.6484 140.15 33.2539 139.928 32.9961C139.709 32.7344 139.365 32.6035 138.896 32.6035C138.588 32.6035 138.32 32.6719 138.094 32.8086C137.867 32.9414 137.691 33.1328 137.566 33.3828C137.445 33.6289 137.385 33.9238 137.385 34.2676V38H136.113ZM145.43 38.123C144.953 38.123 144.551 38.0312 144.223 37.8477C143.898 37.6602 143.654 37.3906 143.49 37.0391C143.33 36.6836 143.25 36.2559 143.25 35.7559V31.6367H144.521V35.457C144.521 35.9805 144.625 36.373 144.832 36.6348C145.039 36.8965 145.377 37.0273 145.846 37.0273C146.182 37.0273 146.465 36.9609 146.695 36.8281C146.93 36.6914 147.105 36.5 147.223 36.2539C147.34 36.0039 147.398 35.709 147.398 35.3691V31.6367H148.676V38H147.398V37.0391H147.305C147.152 37.3789 146.918 37.6445 146.602 37.8359C146.285 38.0273 145.895 38.123 145.43 38.123ZM152.818 38.123C152.307 38.123 151.861 38.0488 151.482 37.9004C151.104 37.748 150.803 37.5391 150.58 37.2734C150.357 37.0039 150.227 36.6914 150.188 36.3359V36.3242H151.465V36.3359C151.547 36.5742 151.703 36.7676 151.934 36.916C152.164 37.0645 152.469 37.1387 152.848 37.1387C153.109 37.1387 153.338 37.1016 153.533 37.0273C153.732 36.9531 153.889 36.8496 154.002 36.7168C154.115 36.584 154.172 36.4316 154.172 36.2598V36.248C154.172 36.0488 154.092 35.8809 153.932 35.7441C153.771 35.6074 153.508 35.4961 153.141 35.4102L152.121 35.1758C151.523 35.0391 151.08 34.8301 150.791 34.5488C150.506 34.2637 150.363 33.8887 150.363 33.4238V33.418C150.363 33.0469 150.469 32.7188 150.68 32.4336C150.891 32.1445 151.182 31.9199 151.553 31.7598C151.928 31.5957 152.355 31.5137 152.836 31.5137C153.32 31.5137 153.742 31.5898 154.102 31.7422C154.465 31.8906 154.752 32.0977 154.963 32.3633C155.174 32.625 155.299 32.9297 155.338 33.2773V33.2832H154.119V33.2715C154.061 33.0488 153.92 32.8633 153.697 32.7148C153.479 32.5664 153.189 32.4922 152.83 32.4922C152.6 32.4922 152.395 32.5293 152.215 32.6035C152.035 32.6738 151.893 32.7734 151.787 32.9023C151.686 33.0273 151.635 33.1758 151.635 33.3477V33.3594C151.635 33.5586 151.713 33.7227 151.869 33.8516C152.025 33.9805 152.281 34.0879 152.637 34.1738L153.65 34.4023C154.26 34.5469 154.713 34.7559 155.01 35.0293C155.311 35.3027 155.461 35.6699 155.461 36.1309V36.1426C155.461 36.5332 155.346 36.8789 155.115 37.1797C154.885 37.4766 154.57 37.709 154.172 37.877C153.777 38.041 153.326 38.123 152.818 38.123ZM162.645 38.041C161.949 38.041 161.445 37.9082 161.133 37.6426C160.824 37.373 160.67 36.9336 160.67 36.3242V32.6387H159.674V31.6367H160.67V30.0312H161.971V31.6367H163.336V32.6387H161.971V36.0137C161.971 36.3574 162.039 36.6055 162.176 36.7578C162.312 36.9062 162.539 36.9805 162.855 36.9805C162.949 36.9805 163.029 36.9785 163.096 36.9746C163.166 36.9707 163.246 36.9648 163.336 36.957V37.9766C163.234 37.9922 163.125 38.0059 163.008 38.0176C162.891 38.0332 162.77 38.041 162.645 38.041ZM167.449 38.123C166.828 38.123 166.291 37.9902 165.838 37.7246C165.389 37.459 165.043 37.0801 164.801 36.5879C164.559 36.0918 164.438 35.5039 164.438 34.8242V34.8125C164.438 34.1289 164.559 33.541 164.801 33.0488C165.047 32.5566 165.395 32.1777 165.844 31.9121C166.297 31.6465 166.832 31.5137 167.449 31.5137C168.07 31.5137 168.605 31.6465 169.055 31.9121C169.504 32.1738 169.85 32.5527 170.092 33.0488C170.338 33.541 170.461 34.1289 170.461 34.8125V34.8242C170.461 35.5039 170.338 36.0918 170.092 36.5879C169.85 37.0801 169.504 37.459 169.055 37.7246C168.609 37.9902 168.074 38.123 167.449 38.123ZM167.449 37.0566C167.812 37.0566 168.121 36.9688 168.375 36.793C168.629 36.6133 168.822 36.3574 168.955 36.0254C169.088 35.6934 169.154 35.293 169.154 34.8242V34.8125C169.154 34.3398 169.088 33.9375 168.955 33.6055C168.822 33.2734 168.629 33.0195 168.375 32.8438C168.121 32.6641 167.812 32.5742 167.449 32.5742C167.086 32.5742 166.777 32.6641 166.523 32.8438C166.27 33.0195 166.074 33.2734 165.938 33.6055C165.805 33.9375 165.738 34.3398 165.738 34.8125V34.8242C165.738 35.293 165.805 35.6934 165.938 36.0254C166.074 36.3574 166.27 36.6133 166.523 36.793C166.777 36.9688 167.086 37.0566 167.449 37.0566ZM50.6602 58.1055C50.2578 58.1055 49.8965 58.0293 49.5762 57.877C49.2598 57.7207 49.0098 57.5 48.8262 57.2148C48.6426 56.9297 48.5508 56.5957 48.5508 56.2129V56.2012C48.5508 55.6309 48.7559 55.1855 49.166 54.8652C49.5801 54.541 50.166 54.3555 50.9238 54.3086L53.2734 54.168V55.0645L51.0996 55.2051C50.6621 55.2324 50.3398 55.3262 50.1328 55.4863C49.9258 55.6426 49.8223 55.8633 49.8223 56.1484V56.1602C49.8223 56.4492 49.9336 56.6777 50.1562 56.8457C50.3789 57.0098 50.6602 57.0918 51 57.0918C51.3164 57.0918 51.5977 57.0293 51.8438 56.9043C52.0938 56.7754 52.2891 56.6035 52.4297 56.3887C52.5703 56.1699 52.6406 55.9238 52.6406 55.6504V53.6465C52.6406 53.2949 52.5312 53.0273 52.3125 52.8438C52.0977 52.6562 51.7773 52.5625 51.3516 52.5625C50.9961 52.5625 50.7051 52.625 50.4785 52.75C50.2559 52.875 50.1074 53.0508 50.0332 53.2773L50.0215 53.2949H48.7969L48.8027 53.2539C48.8535 52.9023 48.9922 52.5977 49.2188 52.3398C49.4492 52.0781 49.75 51.875 50.1211 51.7305C50.4961 51.5859 50.9238 51.5137 51.4043 51.5137C51.9395 51.5137 52.3926 51.5996 52.7637 51.7715C53.1387 51.9395 53.4219 52.1836 53.6133 52.5039C53.8086 52.8203 53.9062 53.2012 53.9062 53.6465V58H52.6406V57.0977H52.5469C52.4219 57.3125 52.2656 57.4961 52.0781 57.6484C51.8906 57.7969 51.6777 57.9102 51.4395 57.9883C51.2012 58.0664 50.9414 58.1055 50.6602 58.1055ZM58.0195 58.1055C57.4883 58.1055 57.0234 57.9727 56.625 57.707C56.2305 57.4375 55.9238 57.0566 55.7051 56.5645C55.4902 56.0723 55.3828 55.4922 55.3828 54.8242V54.8125C55.3828 54.1406 55.4902 53.5586 55.7051 53.0664C55.9199 52.5742 56.2246 52.1953 56.6191 51.9297C57.0137 51.6602 57.4805 51.5254 58.0195 51.5254C58.457 51.5254 58.8496 51.627 59.1973 51.8301C59.5488 52.0293 59.8086 52.3008 59.9766 52.6445H60.0703V49.1406H61.3477V58H60.0703V56.998H59.9766C59.793 57.3457 59.5332 57.6172 59.1973 57.8125C58.8613 58.0078 58.4688 58.1055 58.0195 58.1055ZM58.3828 57.0156C58.7344 57.0156 59.0391 56.9277 59.2969 56.752C59.5547 56.5762 59.752 56.3242 59.8887 55.9961C60.0254 55.6641 60.0938 55.2734 60.0938 54.8242V54.8125C60.0938 54.3594 60.0234 53.9688 59.8828 53.6406C59.7461 53.3125 59.5488 53.0605 59.291 52.8848C59.0371 52.7051 58.7344 52.6152 58.3828 52.6152C58.0312 52.6152 57.7266 52.7051 57.4688 52.8848C57.2148 53.0605 57.0195 53.3125 56.8828 53.6406C56.75 53.9648 56.6836 54.3555 56.6836 54.8125V54.8242C56.6836 55.2773 56.75 55.668 56.8828 55.9961C57.0195 56.3242 57.2148 56.5762 57.4688 56.752C57.7266 56.9277 58.0312 57.0156 58.3828 57.0156ZM65.5547 58.1055C65.0234 58.1055 64.5586 57.9727 64.1602 57.707C63.7656 57.4375 63.459 57.0566 63.2402 56.5645C63.0254 56.0723 62.918 55.4922 62.918 54.8242V54.8125C62.918 54.1406 63.0254 53.5586 63.2402 53.0664C63.4551 52.5742 63.7598 52.1953 64.1543 51.9297C64.5488 51.6602 65.0156 51.5254 65.5547 51.5254C65.9922 51.5254 66.3848 51.627 66.7324 51.8301C67.084 52.0293 67.3438 52.3008 67.5117 52.6445H67.6055V49.1406H68.8828V58H67.6055V56.998H67.5117C67.3281 57.3457 67.0684 57.6172 66.7324 57.8125C66.3965 58.0078 66.0039 58.1055 65.5547 58.1055ZM65.918 57.0156C66.2695 57.0156 66.5742 56.9277 66.832 56.752C67.0898 56.5762 67.2871 56.3242 67.4238 55.9961C67.5605 55.6641 67.6289 55.2734 67.6289 54.8242V54.8125C67.6289 54.3594 67.5586 53.9688 67.418 53.6406C67.2812 53.3125 67.084 53.0605 66.8262 52.8848C66.5723 52.7051 66.2695 52.6152 65.918 52.6152C65.5664 52.6152 65.2617 52.7051 65.0039 52.8848C64.75 53.0605 64.5547 53.3125 64.418 53.6406C64.2852 53.9648 64.2188 54.3555 64.2188 54.8125V54.8242C64.2188 55.2773 64.2852 55.668 64.418 55.9961C64.5547 56.3242 64.75 56.5762 65.0039 56.752C65.2617 56.9277 65.5664 57.0156 65.918 57.0156ZM74.0391 58V51.6367H75.3105V52.5977H75.4102C75.5664 52.2578 75.7969 51.9922 76.1016 51.8008C76.4062 51.6094 76.791 51.5137 77.2559 51.5137C77.9707 51.5137 78.5176 51.7188 78.8965 52.1289C79.2754 52.5391 79.4648 53.123 79.4648 53.8809V58H78.1875V54.1797C78.1875 53.6484 78.0762 53.2539 77.8535 52.9961C77.6348 52.7344 77.291 52.6035 76.8223 52.6035C76.5137 52.6035 76.2461 52.6719 76.0195 52.8086C75.793 52.9414 75.6172 53.1328 75.4922 53.3828C75.3711 53.6289 75.3105 53.9238 75.3105 54.2676V58H74.0391ZM83.9062 58.123C83.2852 58.123 82.752 57.9902 82.3066 57.7246C81.8613 57.4551 81.5176 57.0742 81.2754 56.582C81.0371 56.0898 80.918 55.5078 80.918 54.8359V54.8301C80.918 54.166 81.0371 53.5859 81.2754 53.0898C81.5176 52.5938 81.8574 52.207 82.2949 51.9297C82.7363 51.6523 83.252 51.5137 83.8418 51.5137C84.4355 51.5137 84.9453 51.6465 85.3711 51.9121C85.8008 52.1777 86.1309 52.5508 86.3613 53.0312C86.5918 53.5078 86.707 54.0664 86.707 54.707V55.1523H81.5625V54.2441H86.0742L85.4648 55.0879V54.5781C85.4648 54.125 85.3945 53.75 85.2539 53.4531C85.1172 53.1523 84.9277 52.9277 84.6855 52.7793C84.4434 52.6309 84.1641 52.5566 83.8477 52.5566C83.5312 52.5566 83.248 52.6348 82.998 52.791C82.752 52.9434 82.5566 53.1699 82.4121 53.4707C82.2715 53.7715 82.2012 54.1406 82.2012 54.5781V55.0879C82.2012 55.5059 82.2715 55.8633 82.4121 56.1602C82.5527 56.457 82.752 56.6836 83.0098 56.8398C83.2715 56.9961 83.5801 57.0742 83.9355 57.0742C84.209 57.0742 84.4434 57.0371 84.6387 56.9629C84.8379 56.8848 85 56.7891 85.125 56.6758C85.2539 56.5625 85.3418 56.4512 85.3887 56.3418L85.4121 56.2949H86.6426L86.6309 56.3477C86.5762 56.5586 86.4805 56.7695 86.3438 56.9805C86.207 57.1875 86.0254 57.377 85.7988 57.5488C85.5762 57.7207 85.3066 57.8594 84.9902 57.9648C84.6777 58.0703 84.3164 58.123 83.9062 58.123ZM89.3906 58L87.6387 51.6367H88.9219L90.0586 56.5469H90.1582L91.4648 51.6367H92.6777L93.9902 56.5469H94.084L95.2266 51.6367H96.4863L94.7402 58H93.4219L92.1035 53.2539H92.0039L90.6973 58H89.3906ZM101.062 58V51.6367H102.334V52.6152H102.434C102.574 52.2637 102.793 51.9922 103.09 51.8008C103.391 51.6094 103.75 51.5137 104.168 51.5137C104.457 51.5137 104.717 51.5605 104.947 51.6543C105.178 51.748 105.375 51.8809 105.539 52.0527C105.707 52.2207 105.838 52.4199 105.932 52.6504H106.031C106.137 52.4199 106.285 52.2207 106.477 52.0527C106.668 51.8809 106.891 51.748 107.145 51.6543C107.402 51.5605 107.676 51.5137 107.965 51.5137C108.395 51.5137 108.762 51.5977 109.066 51.7656C109.371 51.9297 109.604 52.168 109.764 52.4805C109.924 52.793 110.004 53.1699 110.004 53.6113V58H108.732V53.916C108.732 53.4785 108.631 53.1504 108.428 52.9316C108.229 52.7129 107.922 52.6035 107.508 52.6035C107.238 52.6035 107.002 52.666 106.799 52.791C106.6 52.9121 106.443 53.0762 106.33 53.2832C106.221 53.4863 106.166 53.7168 106.166 53.9746V58H104.895V53.7871C104.895 53.4238 104.783 53.1367 104.561 52.9258C104.342 52.7109 104.045 52.6035 103.67 52.6035C103.416 52.6035 103.188 52.6699 102.984 52.8027C102.785 52.9355 102.627 53.1152 102.51 53.3418C102.393 53.5645 102.334 53.8145 102.334 54.0918V58H101.062ZM114.457 58.123C113.836 58.123 113.303 57.9902 112.857 57.7246C112.412 57.4551 112.068 57.0742 111.826 56.582C111.588 56.0898 111.469 55.5078 111.469 54.8359V54.8301C111.469 54.166 111.588 53.5859 111.826 53.0898C112.068 52.5938 112.408 52.207 112.846 51.9297C113.287 51.6523 113.803 51.5137 114.393 51.5137C114.986 51.5137 115.496 51.6465 115.922 51.9121C116.352 52.1777 116.682 52.5508 116.912 53.0312C117.143 53.5078 117.258 54.0664 117.258 54.707V55.1523H112.113V54.2441H116.625L116.016 55.0879V54.5781C116.016 54.125 115.945 53.75 115.805 53.4531C115.668 53.1523 115.479 52.9277 115.236 52.7793C114.994 52.6309 114.715 52.5566 114.398 52.5566C114.082 52.5566 113.799 52.6348 113.549 52.791C113.303 52.9434 113.107 53.1699 112.963 53.4707C112.822 53.7715 112.752 54.1406 112.752 54.5781V55.0879C112.752 55.5059 112.822 55.8633 112.963 56.1602C113.104 56.457 113.303 56.6836 113.561 56.8398C113.822 56.9961 114.131 57.0742 114.486 57.0742C114.76 57.0742 114.994 57.0371 115.189 56.9629C115.389 56.8848 115.551 56.7891 115.676 56.6758C115.805 56.5625 115.893 56.4512 115.939 56.3418L115.963 56.2949H117.193L117.182 56.3477C117.127 56.5586 117.031 56.7695 116.895 56.9805C116.758 57.1875 116.576 57.377 116.35 57.5488C116.127 57.7207 115.857 57.8594 115.541 57.9648C115.229 58.0703 114.867 58.123 114.457 58.123ZM118.77 58V51.6367H120.041V52.5977H120.141C120.297 52.2578 120.527 51.9922 120.832 51.8008C121.137 51.6094 121.521 51.5137 121.986 51.5137C122.701 51.5137 123.248 51.7188 123.627 52.1289C124.006 52.5391 124.195 53.123 124.195 53.8809V58H122.918V54.1797C122.918 53.6484 122.807 53.2539 122.584 52.9961C122.365 52.7344 122.021 52.6035 121.553 52.6035C121.244 52.6035 120.977 52.6719 120.75 52.8086C120.523 52.9414 120.348 53.1328 120.223 53.3828C120.102 53.6289 120.041 53.9238 120.041 54.2676V58H118.77ZM128.086 58.123C127.609 58.123 127.207 58.0312 126.879 57.8477C126.555 57.6602 126.311 57.3906 126.146 57.0391C125.986 56.6836 125.906 56.2559 125.906 55.7559V51.6367H127.178V55.457C127.178 55.9805 127.281 56.373 127.488 56.6348C127.695 56.8965 128.033 57.0273 128.502 57.0273C128.838 57.0273 129.121 56.9609 129.352 56.8281C129.586 56.6914 129.762 56.5 129.879 56.2539C129.996 56.0039 130.055 55.709 130.055 55.3691V51.6367H131.332V58H130.055V57.0391H129.961C129.809 57.3789 129.574 57.6445 129.258 57.8359C128.941 58.0273 128.551 58.123 128.086 58.123ZM136.447 58V51.6367H137.725V58H136.447ZM137.092 50.5C136.873 50.5 136.686 50.4219 136.529 50.2656C136.373 50.1094 136.295 49.9219 136.295 49.7031C136.295 49.4844 136.373 49.2988 136.529 49.1465C136.686 48.9902 136.873 48.9121 137.092 48.9121C137.311 48.9121 137.498 48.9902 137.654 49.1465C137.811 49.2988 137.889 49.4844 137.889 49.7031C137.889 49.9219 137.811 50.1094 137.654 50.2656C137.498 50.4219 137.311 50.5 137.092 50.5ZM141.973 58.041C141.277 58.041 140.773 57.9082 140.461 57.6426C140.152 57.373 139.998 56.9336 139.998 56.3242V52.6387H139.002V51.6367H139.998V50.0312H141.299V51.6367H142.664V52.6387H141.299V56.0137C141.299 56.3574 141.367 56.6055 141.504 56.7578C141.641 56.9062 141.867 56.9805 142.184 56.9805C142.277 56.9805 142.357 56.9785 142.424 56.9746C142.494 56.9707 142.574 56.9648 142.664 56.957V57.9766C142.562 57.9922 142.453 58.0059 142.336 58.0176C142.219 58.0332 142.098 58.041 141.973 58.041ZM146.754 58.123C146.133 58.123 145.6 57.9902 145.154 57.7246C144.709 57.4551 144.365 57.0742 144.123 56.582C143.885 56.0898 143.766 55.5078 143.766 54.8359V54.8301C143.766 54.166 143.885 53.5859 144.123 53.0898C144.365 52.5938 144.705 52.207 145.143 51.9297C145.584 51.6523 146.1 51.5137 146.689 51.5137C147.283 51.5137 147.793 51.6465 148.219 51.9121C148.648 52.1777 148.979 52.5508 149.209 53.0312C149.439 53.5078 149.555 54.0664 149.555 54.707V55.1523H144.41V54.2441H148.922L148.312 55.0879V54.5781C148.312 54.125 148.242 53.75 148.102 53.4531C147.965 53.1523 147.775 52.9277 147.533 52.7793C147.291 52.6309 147.012 52.5566 146.695 52.5566C146.379 52.5566 146.096 52.6348 145.846 52.791C145.6 52.9434 145.404 53.1699 145.26 53.4707C145.119 53.7715 145.049 54.1406 145.049 54.5781V55.0879C145.049 55.5059 145.119 55.8633 145.26 56.1602C145.4 56.457 145.6 56.6836 145.857 56.8398C146.119 56.9961 146.428 57.0742 146.783 57.0742C147.057 57.0742 147.291 57.0371 147.486 56.9629C147.686 56.8848 147.848 56.7891 147.973 56.6758C148.102 56.5625 148.189 56.4512 148.236 56.3418L148.26 56.2949H149.49L149.479 56.3477C149.424 56.5586 149.328 56.7695 149.191 56.9805C149.055 57.1875 148.873 57.377 148.646 57.5488C148.424 57.7207 148.154 57.8594 147.838 57.9648C147.525 58.0703 147.164 58.123 146.754 58.123ZM151.066 58V51.6367H152.338V52.6152H152.438C152.578 52.2637 152.797 51.9922 153.094 51.8008C153.395 51.6094 153.754 51.5137 154.172 51.5137C154.461 51.5137 154.721 51.5605 154.951 51.6543C155.182 51.748 155.379 51.8809 155.543 52.0527C155.711 52.2207 155.842 52.4199 155.936 52.6504H156.035C156.141 52.4199 156.289 52.2207 156.48 52.0527C156.672 51.8809 156.895 51.748 157.148 51.6543C157.406 51.5605 157.68 51.5137 157.969 51.5137C158.398 51.5137 158.766 51.5977 159.07 51.7656C159.375 51.9297 159.607 52.168 159.768 52.4805C159.928 52.793 160.008 53.1699 160.008 53.6113V58H158.736V53.916C158.736 53.4785 158.635 53.1504 158.432 52.9316C158.232 52.7129 157.926 52.6035 157.512 52.6035C157.242 52.6035 157.006 52.666 156.803 52.791C156.604 52.9121 156.447 53.0762 156.334 53.2832C156.225 53.4863 156.17 53.7168 156.17 53.9746V58H154.898V53.7871C154.898 53.4238 154.787 53.1367 154.564 52.9258C154.346 52.7109 154.049 52.6035 153.674 52.6035C153.42 52.6035 153.191 52.6699 152.988 52.8027C152.789 52.9355 152.631 53.1152 152.514 53.3418C152.396 53.5645 152.338 53.8145 152.338 54.0918V58H151.066ZM162.768 58.0938C162.525 58.0938 162.32 58.0098 162.152 57.8418C161.988 57.6738 161.906 57.4727 161.906 57.2383C161.906 56.9961 161.988 56.793 162.152 56.6289C162.32 56.4648 162.525 56.3828 162.768 56.3828C163.014 56.3828 163.219 56.4648 163.383 56.6289C163.547 56.793 163.629 56.9961 163.629 57.2383C163.629 57.4727 163.547 57.6738 163.383 57.8418C163.219 58.0098 163.014 58.0938 162.768 58.0938Z"
          fill="white"/>
    <path d="M228.037 122.352C225.913 122.667 223.74 122.832 221.528 122.832C213.437 122.832 205.858 120.648 199.343 116.841C200.372 113.019 202.354 109.622 204.995 106.886C204.882 107.002 204.771 107.119 204.661 107.237H231.867L228.037 122.352Z"
          fill="#E9E3D5"/>
    <path d="M243.713 116.841C242.759 113.299 240.98 110.185 238.798 107.683C237.381 106.095 235.912 104.751 234.055 103.569C233.927 103.477 233.301 103.097 233.1 102.979C223.636 97.4302 211.872 99.4446 204.661 107.237C210.908 109.798 217.663 110.967 224.448 110.654C224.701 110.719 224.94 110.748 225.166 110.748C226.752 110.748 228.038 112.034 228.038 113.62V122.352C233.683 121.515 238.979 119.607 243.713 116.841Z"
          fill="#D3CDBF"/>
    <path d="M238.426 119.47C236.918 120.097 235.369 120.643 233.782 121.102V110.748C236.103 113.095 237.754 116.106 238.426 119.47Z"
          fill="#A19B8D"/>
    <path d="M209.274 110.748V121.102C207.687 120.643 206.138 120.097 204.63 119.47C205.302 116.106 206.953 113.095 209.274 110.748Z"
          fill="#B6B0A2"/>
    <path d="M222.294 116.589C223.087 116.589 223.73 115.946 223.73 115.153C223.73 114.36 223.087 113.717 222.294 113.717C221.501 113.717 220.858 114.36 220.858 115.153C220.858 115.946 221.501 116.589 222.294 116.589Z"
          fill="#3E4954"/>
    <path d="M222.294 122.333C223.087 122.333 223.73 121.69 223.73 120.897C223.73 120.104 223.087 119.461 222.294 119.461C221.501 119.461 220.858 120.104 220.858 120.897C220.858 121.69 221.501 122.333 222.294 122.333Z"
          fill="#3E4954"/>
    <path d="M249.099 79.5904C249.099 64.7468 237.058 48.9554 222.294 48.9554C210.048 48.9554 199.721 59.7865 196.517 71.9087C195.346 71.3127 194.021 70.9743 192.616 70.9743C187.858 70.9743 184 74.8317 184 79.5904C184 84.349 187.857 88.2065 192.616 88.2065C192.863 88.2065 193.106 88.1936 193.348 88.1733C193.588 93.1063 196.228 97.8017 200.853 100.544C214.015 108.347 230.572 108.347 243.734 100.544C251.121 96.1649 253.395 86.8818 249.099 79.5904Z"
          fill="#FFB578"/>
    <path d="M251.971 70.9743C250.566 70.9743 249.24 71.3129 248.068 71.9099C245.945 63.8764 240.698 56.4243 233.849 52.3016C233.849 52.3016 241.239 61.0202 241.239 77.6768C241.239 82.7694 238.513 87.6815 233.715 90.5254C221.629 97.6899 206.681 98.2744 194.127 92.2811C195.252 95.6163 197.542 98.5811 200.854 100.544C214.016 108.346 230.572 108.346 243.734 100.544C248.382 97.7889 251.003 93.0931 251.24 88.1733C251.481 88.1937 251.725 88.2065 251.971 88.2065C256.73 88.2065 260.587 84.3491 260.587 79.5904C260.587 74.8317 256.73 70.9743 251.971 70.9743Z"
          fill="#F7A16E"/>
    <path d="M192.616 82.4634C194.203 82.4634 195.489 81.1775 195.489 79.5913C195.489 78.0052 194.203 76.7193 192.616 76.7193C191.03 76.7193 189.744 78.0052 189.744 79.5913C189.744 81.1775 191.03 82.4634 192.616 82.4634Z"
          fill="#F7A16E"/>
    <path d="M251.972 82.4634C253.558 82.4634 254.844 81.1775 254.844 79.5913C254.844 78.0052 253.558 76.7193 251.972 76.7193C250.385 76.7193 249.1 78.0052 249.1 79.5913C249.1 81.1775 250.385 82.4634 251.972 82.4634Z"
          fill="#CE795F"/>
    <path d="M196.517 71.8981C198.451 72.8818 199.963 74.5732 200.713 76.6313C201.057 77.5743 202.24 77.8973 202.995 77.2368C206.608 74.0787 208.891 69.4379 208.891 64.2623C208.891 61.0447 208.008 58.0338 206.473 55.4564C206.473 55.4566 194.865 58.6637 196.517 71.8981Z"
          fill="#596775"/>
    <path d="M238.115 55.4566C236.58 58.0338 235.696 61.0448 235.696 64.2625C235.696 69.4381 237.979 74.0789 241.592 77.2369C242.348 77.8975 243.531 77.5745 243.874 76.6315C244.624 74.5732 246.137 72.882 248.071 71.8983C249.723 58.6637 238.115 55.4566 238.115 55.4566Z"
          fill="#46525E"/>
    <path d="M247.185 43.2008H197.403V63.6784H247.185V43.2008Z" fill="#E9E3D5"/>
    <path d="M246.132 32C244.743 32 199.191 32 198.456 32C193.645 32 189.744 35.9004 189.744 40.7118C189.744 45.5231 193.645 49.4235 198.456 49.4235C198.825 49.4235 245.181 49.4235 246.132 49.4235C250.943 49.4235 254.843 45.5231 254.843 40.7118C254.843 35.9004 250.943 32 246.132 32Z"
          fill="#E9E3D5"/>
    <path d="M254.843 40.7117C254.843 39.1988 254.457 37.7763 253.779 36.5366C251.914 37.0105 250.535 38.7 250.535 40.7117C250.535 43.1398 248.56 45.1155 246.131 45.1155H198.456C196.444 45.1155 194.755 46.4947 194.281 48.359C195.521 49.0375 196.943 49.4237 198.456 49.4237H206.976H222.294C232.856 49.4237 245.159 49.4237 246.131 49.4237C250.943 49.4235 254.843 45.5232 254.843 40.7117Z"
          fill="#D3CDBF"/>
    <path d="M199.701 40.7118C199.701 39.9186 199.058 39.2758 198.265 39.2758C197.472 39.2758 196.829 39.9188 196.829 40.7118C196.829 43.0991 197.659 45.2952 199.045 47.0301H203.376C201.183 45.7755 199.701 43.4144 199.701 40.7118Z"
          fill="#D3CDBF"/>
    <path d="M247.759 40.7118C247.759 39.9186 247.116 39.2758 246.323 39.2758C245.53 39.2758 244.887 39.9188 244.887 40.7118C244.887 43.4144 243.405 45.7755 241.212 47.0301H245.544C246.928 45.2952 247.759 43.0993 247.759 40.7118Z"
          fill="#D3CDBF"/>
    <path d="M237.611 39.2758C236.818 39.2758 236.175 39.9188 236.175 40.7118C236.175 43.4144 234.693 45.7755 232.5 47.0301H236.832C238.217 45.295 239.047 43.0991 239.047 40.7118C239.047 39.9188 238.404 39.2758 237.611 39.2758Z"
          fill="#D3CDBF"/>
    <path d="M211.189 40.7118C211.189 39.9186 210.546 39.2758 209.753 39.2758C208.96 39.2758 208.317 39.9188 208.317 40.7118C208.317 43.0991 209.147 45.2952 210.533 47.0301H214.864C212.671 45.7755 211.189 43.4144 211.189 40.7118Z"
          fill="#D3CDBF"/>
    <defs>
        <filter id="filter0_d_1_620" x="0" y="0" width="300" height="189" filterUnits="userSpaceOnUse"
                color-interpolation-filters="sRGB">
            <feFlood flood-opacity="0" result="BackgroundImageFix"/>
            <feColorMatrix in="SourceAlpha" type="matrix" values="0 0 0 0 0 0 0 0 0 0 0 0 0 0 0 0 0 0 127 0"
                           result="hardAlpha"/>
            <feOffset dy="15"/>
            <feGaussianBlur stdDeviation="10"/>
            <feColorMatrix type="matrix" values="0 0 0 0 0.275709 0 0 0 0 0.0242025 0 0 0 0 0.316652 0 0 0 0.12 0"/>
            <feBlend mode="normal" in2="BackgroundImageFix" result="effect1_dropShadow_1_620"/>
            <feBlend mode="normal" in="SourceGraphic" in2="effect1_dropShadow_1_620" result="shape"/>
        </filter>
    </defs>
</svg>
