<svg width="45" height="45" viewBox="0 0 45 45" fill="none" xmlns="http://www.w3.org/2000/svg">
    <path d="M22.4839 43.5537C11.0864 43.5537 1.81396 34.2812 1.81396 22.8838C1.81396 11.4863 11.0864 2.21387 22.4839 2.21387C33.8813 2.21387 43.1538 11.4863 43.1538 22.8838C43.1538 34.2812 33.8813 43.5537 22.4839 43.5537ZM22.4839 3.97301C12.0566 3.97301 3.5731 12.4565 3.5731 22.8838C3.5731 33.3111 12.0566 41.7945 22.4839 41.7945C32.9112 41.7945 41.3946 33.3111 41.3946 22.8838C41.3946 12.4565 32.9112 3.97301 22.4839 3.97301Z" fill="#EC5353"/>
    <path d="M22.484 27.33C22.2507 27.33 22.027 27.2373 21.862 27.0724C21.6971 26.9074 21.6044 26.6837 21.6044 26.4504V12.5295C21.6044 12.2962 21.6971 12.0725 21.862 11.9075C22.027 11.7426 22.2507 11.6499 22.484 11.6499C22.7173 11.6499 22.941 11.7426 23.1059 11.9075C23.2709 12.0725 23.3635 12.2962 23.3635 12.5295V26.4495C23.3635 26.6828 23.2709 26.9065 23.1059 27.0715C22.941 27.2364 22.7173 27.3291 22.484 27.3291V27.33ZM23.8957 32.7086C23.8957 33.4826 23.2624 34.1159 22.484 34.1159C21.7056 34.1159 21.0723 33.4826 21.0723 32.7086C21.0723 31.9301 21.7056 31.2969 22.484 31.2969C23.2624 31.2969 23.8957 31.9301 23.8957 32.7086Z" fill="#EC5353"/>
</svg>
